<svg width="349" height="677" viewBox="0 0 349 677" fill="none" xmlns="http://www.w3.org/2000/svg">
<g clip-path="url(#clip0_1259_3969)">
<path d="M329.617 595.694C327.872 595.268 326.128 595.093 324.325 594.938C321.592 594.725 321.514 595.869 321.96 598.022C323.647 606.129 326.438 613.849 330.004 621.297C330.566 622.499 331.012 623.818 331.865 624.788C334.075 627.329 332.737 628.744 330.508 630.063C323.627 634.136 316.397 637.104 308.295 637.666C304.554 637.918 301.084 639.315 298.138 641.662C294.416 644.629 290.288 646.065 285.519 645.696C283.697 645.56 281.042 647.965 281.042 649.653C281.042 654.133 279.045 657.702 276.021 660.728C268.132 668.563 258.402 672.539 247.547 674.072C243.515 674.363 239.503 674.401 235.471 674.052C228.454 673.509 222.368 670.658 216.766 666.566C212.036 663.094 207.481 659.389 202.151 656.829C200.949 656.267 199.767 655.685 198.545 655.18C193.428 653.125 193.04 653.26 191.16 658.458C189.377 663.404 185.21 666.197 181.41 669.242C176.7 673.044 171.234 675.391 165.225 676.302C158.77 676.613 152.316 676.671 145.88 676.302C140.414 675.274 135.433 673.005 130.645 670.309C120.721 664.742 111.242 658.517 103.508 650.002C103.198 649.672 102.791 649.265 102.403 649.207C95.8516 648.547 89.7846 644.765 82.8065 646.646C77.9412 647.965 72.9984 647.325 68.0556 646.22C55.7084 643.427 43.458 640.421 31.9248 634.97C28.145 633.186 24.9855 630.8 22.5626 627.406C20.9731 625.176 18.9766 624.206 16.0497 623.721C10.002 622.693 4.187 620.56 0.678585 614.78C0.0970798 613.829 -0.29059 612.918 0.445983 611.948C4.51652 606.556 5.97028 599.962 8.66459 593.949C18.7828 571.237 24.152 547.128 28.9979 522.884C30.7424 514.195 32.0799 505.447 33.146 496.642C34.1733 488.263 34.5997 479.845 35.879 471.505C37.139 463.262 38.1663 455.019 38.8059 446.679C39.5037 437.388 40.7637 428.117 41.539 418.807C42.1593 411.301 42.8377 403.776 43.8263 396.289C46.0554 379.279 50.7656 362.948 57.5886 347.219C60.7481 339.926 63.8494 332.614 67.0865 325.36C67.8037 323.731 67.7649 323.013 65.9235 322.257C61.8529 320.589 59.0229 317.369 56.5806 313.82C52.1612 307.419 49.4669 300.282 47.8193 292.717C47.2765 290.273 46.288 287.888 46.5787 285.289C46.1911 279.024 46.2104 272.759 46.5787 266.495C47.7611 256.971 50.029 247.7 53.2854 238.701C56.0185 231.195 58.0731 223.553 58.5383 215.543C59.3331 201.714 61.9111 188.35 68.327 175.918C71.0407 170.681 74.1421 165.716 78.5227 161.681C81.1201 159.276 84.0276 157.375 87.5942 156.716C88.1563 156.619 88.7766 156.561 89.0286 155.96C91.374 150.393 96.5882 149.811 101.492 149.113C103.876 148.764 104.4 148.124 104.652 145.758C105.02 142.169 106.202 138.659 107.113 135.148C108.703 129.039 108.625 122.929 108.083 116.664C107.598 110.981 106.551 105.337 106.668 99.5963C106.416 96.1245 106.357 92.6333 106.668 89.1615C106.861 83.0519 108.063 77.0975 108.819 71.0655C109.963 62.0854 112.153 53.4156 114.499 44.7264C118.24 30.8392 127.137 20.7342 138.612 12.879C145.299 8.30165 152.587 4.51953 160.806 3.23943C164.217 2.71575 167.687 2.42481 171.137 2.38602C174.587 2.34723 177.786 1.37746 181.061 0.562847C182.98 0.174936 184.919 0.271914 186.857 0.50466C190.249 0.931361 193.525 1.64899 196.297 3.89887C198.526 5.70265 201.492 5.54749 204.089 6.09057C208.974 7.07974 212.715 9.71752 216.165 12.9566C221.747 18.1934 225.934 24.3999 228.958 31.4599C233.533 42.1274 236.615 53.1634 237.312 64.8008C237.855 67.3222 237.564 69.863 237.545 72.4038C237.467 80.7051 237.875 88.9869 237.332 97.2882C237.119 105.24 235.626 113.018 234.017 120.796C233.726 122.153 233.862 123.608 233.804 125.024C233.436 128.476 233.494 131.909 233.785 135.362C233.61 139.357 235.025 143.081 235.742 146.921C236.518 151.053 239.018 153.535 243.341 154.602C252.994 156.968 260.863 162.457 266.291 170.681C270.264 176.713 273.676 183.21 275.982 190.173C278.754 198.591 280.576 207.28 283.057 215.737C286.547 227.684 288.873 239.787 291.005 251.967C291.896 257.107 292.284 262.344 292.943 267.523C293.079 268.531 293.35 269.52 293.563 270.509C293.893 273.749 293.873 276.988 293.583 280.227C291.354 293.086 285.132 303.773 275.886 312.792C274.044 314.576 271.97 316.128 269.528 316.962C268.035 317.466 267.9 318.125 268.462 319.444C269.877 322.761 271.544 325.961 273.54 328.929C280.79 339.713 284.434 352.145 289.454 363.938C290.811 367.118 291.334 370.629 291.179 374.101C291.102 375.769 291.741 376.39 293.176 376.894C295.851 377.844 298.409 379.047 301.084 379.997C302.48 380.482 302.984 381.103 302.732 382.674C301.666 389.598 300.716 396.541 299.785 403.485C299.63 404.591 299.785 405.754 299.824 406.879C300.386 409.168 299.669 411.515 300.212 413.803C300.444 419.118 302.267 424.122 303.391 429.242C304.631 434.809 306.066 440.317 306.628 446.019C306.919 453.661 306.977 461.284 306.608 468.925C306.318 472.591 305.349 476.16 304.437 479.69C303.274 484.132 303.468 488.263 305.213 492.588C314.478 515.494 321.98 539.001 327.988 562.974C329.52 569.045 332.136 574.185 336.905 578.355C340.956 581.904 344.678 585.822 348.244 589.876C349.446 591.253 349.485 591.893 347.527 592.455C344.096 593.464 340.975 595.442 337.292 595.656C334.773 595.947 332.253 595.927 329.714 595.656L329.617 595.694Z" fill="#221E1F"/>
<path d="M82.9615 398.985C82.9033 398.423 82.8646 397.86 82.8064 397.317C82.535 393.341 82.38 389.346 82.8839 385.369C83.543 383.895 82.3994 382.383 82.9809 380.908C83.4073 375.555 83.039 370.183 83.1747 364.83C83.1941 363.705 83.0003 362.56 83.3492 361.455C84.6091 352.339 85.4232 343.184 86.9739 334.107C87.3228 332.012 88.0787 331.605 90.1334 332.187C96.7238 334.068 103.334 335.989 110.098 337.152C115.409 337.463 120.701 337.501 126.012 337.133C127.699 337.075 129.385 337.016 131.071 336.958C133.165 336.473 135.336 337.133 137.429 336.59C152.258 336.978 163.287 329.045 173.676 319.832C174.936 318.707 175.653 318.513 176.913 319.347C177.611 319.813 178.464 320.084 179.142 320.588C189.28 328.114 200.968 330.344 213.238 330.888C216.301 331.023 219.402 331.256 222.465 331.469C226.826 331.818 231.187 331.877 235.548 331.431C245.899 329.879 255.261 325.709 264.12 320.375C265.845 319.328 266.407 319.444 267.299 321.306C270.284 327.513 273.327 333.719 276.7 339.712C283.755 352.203 287.419 365.858 290.791 379.628C291.722 383.391 290.598 384.923 286.682 385.389C281.061 386.048 275.401 386.397 269.78 386.979C265.573 387.406 261.367 387.716 257.142 387.716C254.854 388.221 252.509 387.542 250.222 388.085C244.639 388.24 244.659 388.24 244.639 394C244.601 402.282 244.562 410.584 244.504 418.866C244.174 427.787 244.174 436.69 244.504 445.612C244.562 447.862 244.62 450.092 244.697 452.342C245.201 454.262 244.542 456.241 245.066 458.141C245.337 465.861 246.287 473.503 248.07 480.989C249.97 488.961 253.924 492.122 262.104 492.84C266.892 493.17 271.66 493.189 276.448 492.84C283.949 492.374 291.102 490.222 298.293 488.263C300.464 487.661 301.588 487.855 302.46 490.241C310.795 513.031 318.587 536.014 324.771 559.502C325.139 560.879 325.527 562.237 324.829 564.138C320.448 561.248 315.564 560.705 310.524 560.899C309.749 557.582 310.369 554.188 310.175 550.852C310.059 549.087 310.427 547.283 309.962 545.538C309.671 538.09 309.516 530.642 307.035 523.504C306.221 524.377 306.182 524.377 306.221 525.56C306.259 526.569 305.988 527.616 306.415 528.605C306.453 529.905 306.511 531.204 306.55 532.504C307.132 534.773 306.415 537.139 306.957 539.409C307.015 540.883 307.054 542.376 307.112 543.85C307.713 546.313 306.919 548.854 307.539 551.317C307.578 552.617 307.636 553.916 307.674 555.196C308.275 557.66 307.481 560.201 308.101 562.664C308.392 563.924 307.985 564.778 306.802 565.437C298.681 569.976 290.171 573.486 280.983 575.213C278.677 575.562 276.37 575.542 274.063 575.213C269.063 574.65 264.236 573.293 259.526 571.644C250.784 568.599 242.081 568.967 233.377 571.45C226.399 573.428 219.402 575.387 212.211 576.144C208.508 576.532 204.709 576.318 200.988 576.842C191.335 578.18 182.535 575.077 173.599 572.109C170.42 571.062 166.931 570.383 163.5 569.956C161.019 569.588 158.538 569.607 156.076 569.956C148.361 570.538 141.306 573.797 133.824 575.387C129.579 576.299 125.334 577.249 120.992 577.501C116.398 577.812 111.824 577.831 107.23 577.501C105.834 577.269 104.361 577.249 103.062 576.745C96.7625 574.32 89.9783 573.137 84.1826 569.355C83.1747 568.696 82.7095 568.191 82.8646 566.97C83.8337 559.677 84.8223 552.365 85.617 545.053C85.7915 543.482 88.0787 542.085 87.4585 541.814C85.5007 540.941 86.4699 539.622 86.3924 538.497C86.2567 536.868 85.9078 535.142 88.3307 534.637C89.3387 534.424 88.6602 532.853 88.5245 532.814C86.1016 532.174 87.3809 530.564 87.4972 529.265C87.8849 525.056 88.2726 520.866 88.6409 516.658C88.9704 508.104 89.0091 499.551 88.6409 490.997C88.5827 488.573 88.5245 486.168 88.4664 483.743C88.0012 481.823 88.6215 479.845 88.1175 477.925C86.6637 454.67 84.4152 431.473 83.3685 408.179C83.3685 407.81 83.3685 407.422 83.3685 407.054C82.8258 404.377 83.5624 401.642 82.9615 398.966V398.985Z" fill="#EE1C24"/>
<path d="M187.574 640.692C198.196 643.097 207.248 639.567 216.184 635.649C222.93 632.701 229.171 628.512 236.188 626.262C247.702 622.577 259.409 619.939 271.33 624.924C272.784 625.525 274.393 625.777 276.448 626.32C275.129 624.516 273.598 624.109 272.183 623.508C261.735 619.125 251.113 620.152 240.452 622.596C233.901 624.09 228.241 627.6 222.271 630.393C214.924 633.826 207.539 637.143 199.553 639.024C209.167 632.158 217.347 622.907 229.966 621.006C225.837 620.443 222.135 621.53 218.53 623.12C213.18 625.486 208.838 629.327 204.322 632.895C200.29 636.076 196.006 638.307 190.617 638.151C187.594 638.074 185.112 637.259 182.845 635.359C179.007 632.158 175.285 628.745 170.73 626.534C162.763 622.693 154.545 622.325 146.171 624.846C138.379 627.212 130.916 630.432 123.764 634.35C120.546 636.115 116.766 635.514 113.316 636.425C105.078 638.598 96.8206 637.88 88.602 636.27C88.1368 636.173 87.6716 636.018 87.2064 636.037C86.6249 636.057 85.7332 635.611 85.5394 636.542C85.365 637.434 86.1984 637.511 86.8575 637.667C90.4434 638.481 94.0875 639.024 97.751 639.432C111.184 640.925 123.647 637.589 135.51 631.635C141.674 628.551 147.935 626.107 154.913 626.01C160.437 625.932 165.865 626.495 170.982 628.725C171.893 629.113 172.94 629.462 173.366 630.587C172.629 631.13 171.854 630.878 171.214 630.665C165.613 628.745 160.185 629.87 154.797 631.538C143.574 635.029 133.107 640.382 122.116 644.416C114.615 647.17 107.016 648.586 98.8753 645.987C93.4091 644.242 87.7491 642.962 81.5852 644.804C76.0221 646.472 70.1877 644.358 64.5083 643.369C54.3126 641.584 44.5433 638.462 35.0841 634.272C29.4242 631.77 24.6752 628.105 21.128 623.004C20.2364 621.704 19.4223 621.471 17.891 621.782C12.9094 622.79 5.91197 619.26 3.31458 614.838C2.51986 613.48 3.14013 612.452 3.56657 611.366C8.62566 598.313 13.7235 585.279 18.7826 572.226C19.2284 571.062 19.7906 569.996 19.558 568.502C19.2478 566.601 20.7016 565.923 22.4267 566.989C26.7492 569.666 30.8004 572.789 35.6075 574.709C47.509 579.48 59.8175 582.564 72.5137 584.251C76.9331 584.833 76.9331 584.891 75.615 589.139C74.5102 592.669 73.4247 596.18 72.3586 599.71C72.0873 600.563 71.5445 601.552 72.9207 602.056C80.6935 604.946 87.9236 609.427 96.3942 610.183C109.478 611.328 122.543 612.297 135.529 609.116C138.534 608.379 141.674 608.05 144.756 607.681C150.397 607.022 155.766 607.487 160.922 610.435C167.047 613.946 174.044 614.586 180.945 614.877C200.755 615.691 220.119 612.666 239.154 607.429C245.434 605.703 251.52 605.548 257.742 607.953C264.333 610.513 271.214 610.416 278.134 609.272C283.968 608.321 289.88 608.457 295.657 606.42C301.22 604.442 306.453 601.94 311.667 599.283C316.332 596.917 319.55 598.126 321.32 602.91C324.034 610.183 326.651 617.476 329.558 624.672C330.528 627.057 329.849 628.027 327.93 629.385C321.398 633.943 314.148 635.921 306.318 635.902C304.108 635.902 302.305 636.483 300.599 637.841C295.657 641.778 290.074 644.067 283.697 644.339C282.146 644.397 281.196 644.474 280.693 642.496C279.336 637.182 275.285 634.234 270.594 632.081C263.228 628.706 255.378 629.23 247.702 630.102C234.967 631.557 223.143 635.999 212.211 642.748C207.539 645.619 202.577 646.899 197.091 646.395C193.137 646.026 190.288 644.067 187.613 640.77L187.574 640.692Z" fill="#00A651"/>
<path d="M200.387 578.626C211.61 578.587 222.562 577.171 233.281 573.583C241.422 570.868 249.796 570.829 258.131 573.234C262.666 574.553 267.241 575.794 271.854 576.783C281.759 578.897 290.675 575.464 299.456 571.527C301.511 570.596 303.469 569.413 305.465 568.366C307.345 567.377 308.353 567.493 308.218 570.092C308.024 573.583 308.14 577.094 308.198 580.604C308.198 581.438 307.772 582.718 309.361 582.641C310.679 582.563 310.33 581.458 310.33 580.682C310.35 575.387 310.408 570.072 310.311 564.778C310.272 563.013 310.873 562.566 312.579 562.547C317.018 562.528 320.856 564.215 324.655 566.193C325.062 566.407 325.488 566.717 325.74 567.105C330.547 574.747 337.603 580.391 343.321 587.199C346.345 590.787 345.899 592.222 341.247 593.192C338.068 593.851 334.831 593.657 331.652 593.114C325.508 592.067 319.634 592.455 314.11 595.694C312.249 596.78 310.098 597.42 308.256 598.545C296.49 605.663 283.407 607.04 270.09 607.603C266.155 607.777 262.298 607.292 258.673 605.896C250.648 602.793 242.759 603.569 234.812 606.051C213.645 612.665 192.033 614.061 170.091 611.54C167.9 611.288 165.671 610.842 163.907 609.62C156.038 604.053 147.489 604.713 138.592 606.09C127.214 607.836 115.856 609.969 104.245 609.368C94.5337 608.863 85.5592 605.838 76.8172 601.9C74.4912 600.853 74.0454 599.263 74.8401 596.838C77.4569 588.906 79.8992 580.915 81.4305 572.691C81.8376 570.499 82.6517 570.441 84.4156 571.217C88.5636 573.079 92.8086 574.65 96.9179 576.57C101.279 578.606 105.834 579.596 110.603 579.828C114.053 580.158 117.484 580.178 120.934 579.828C128.92 578.781 136.557 576.26 144.33 574.339C148.924 573.215 153.537 572.322 158.247 571.818C166.834 570.906 174.588 574.029 182.438 576.745C184.764 577.54 187.012 578.529 189.494 578.684C193.118 579.033 196.743 579.053 200.368 578.684L200.387 578.626Z" fill="#EE1C24"/>
<path d="M110.099 335.407C100.271 333.176 90.4049 331.082 80.8489 327.862C60.5544 321.035 50.4556 306.391 48.7498 285.425C48.4591 278.753 48.4591 272.081 48.7498 265.389C49.0793 260.055 50.4168 254.935 51.8512 249.834C54.1966 241.552 56.697 233.328 58.9261 225.008C59.6821 222.176 60.9614 220.004 63.4231 218.471C65.9042 216.92 68.3465 214.01 70.7888 214.049C73.0567 214.088 73.8321 218.219 75.499 220.392C77.9801 223.631 79.5114 227.432 81.1978 231.428C83.9696 229.546 85.7917 227.044 87.9239 224.853C93.9909 218.588 95.0182 218.646 99.9416 225.842C101.376 227.956 102.849 230.031 104.284 232.145C105.156 233.445 105.931 233.58 107.152 232.378C109.827 229.74 112.657 227.258 115.584 224.562C117.019 235.714 110.254 243.724 105.408 252.569C106.92 252.763 107.327 251.967 108.005 251.715C108.916 251.366 109.536 250.028 110.699 250.746C111.63 251.327 111.223 252.472 111.281 253.383C111.455 257.088 109.711 259.92 107.191 262.383C105.64 263.896 103.915 265.273 102.52 266.921C100.698 269.074 101.24 271.673 103.857 272.527C101.105 274.098 98.5848 275.533 96.0843 276.988C90.9477 279.955 87.1291 284.203 84.2798 289.343C83.8921 290.041 82.5934 291.146 84.2798 291.903C86.0437 292.717 85.7335 290.952 86.0824 290.215C87.7106 286.705 90.2111 283.97 93.7389 281.332C93.5257 283.039 93.3125 284.28 93.2349 285.522C93.1962 286.162 92.5759 287.19 93.7583 287.364C94.8438 287.519 94.9213 286.472 94.8438 285.774C94.553 283.233 95.9099 281.274 97.0341 279.218C97.3055 278.733 97.5768 278.074 98.0227 277.88C101.57 276.386 104.632 274.001 108.47 271.906C107.908 274.136 107.366 275.804 109.808 276.697C111.029 277.143 109.769 278.151 109.401 278.733C106.203 283.563 104.109 288.916 101.744 294.191C102.907 294.579 103.644 294.618 103.973 293.26C104.322 291.806 104.943 290.409 105.485 288.993C108.277 281.507 113.064 276.192 121.477 274.815C121.806 275.087 121.593 275.708 121.515 276.173C121.108 278.578 122.097 279.451 124.423 279.024C125.896 278.753 126.768 279.354 127.602 280.673C128.649 282.321 130.122 283.737 131.479 285.173C133.262 287.093 133.262 288.916 131.614 290.952C128.416 294.851 124.559 298.09 121.108 301.717C119.674 303.23 118.337 304.82 117.019 306.43C115.991 307.671 116.146 308.796 117.503 309.805C120.566 312.035 123.57 314.324 126.613 316.574C127.389 317.156 128.145 317.485 127.427 318.766C124.462 324.041 121.612 329.394 118.744 334.709C118.492 335.194 118.085 335.329 117.6 335.407C115.119 335.678 112.638 335.737 110.176 335.368L110.099 335.407Z" fill="#E2F4FD"/>
<path d="M172.048 130.067C166.679 130.842 161.31 131.599 155.882 132.394C156.522 134.683 158.073 134.314 159.526 134.081C162.957 133.519 166.388 132.898 169.916 132.666C159.992 137.941 149.718 142.208 138.573 144.536C141.19 142.732 143.806 140.928 146.423 139.105C147.101 138.639 148.09 138.232 147.334 137.146C146.52 135.982 145.803 137.068 145.221 137.456C141.306 140.094 137.313 142.654 133.552 145.505C128.086 149.637 121.864 151.79 115.177 152.022C112.657 152.1 110.04 150.393 107.579 149.288C106.532 148.822 107.036 147.639 107.21 146.708C108.179 141.607 109.497 136.564 110.215 131.405C111.242 123.841 110.932 116.218 109.963 108.751C107.559 90.1312 109.963 72.0158 114.15 53.9198C118.007 37.3367 126.439 23.915 140.278 14.0427C149.544 7.4288 159.992 4.28673 171.719 4.09277C170.439 6.1293 168.675 7.21545 167.008 8.32099C157.743 14.4888 151.114 22.8094 146.966 33.0697C143.341 42.0304 143.244 51.5342 144.698 60.7664C146.675 73.3153 146.656 85.8254 146.346 98.3937C146.346 98.6458 146.21 98.898 146.055 99.4023C144.679 98.3937 143.981 97.036 143.302 95.7947C139.755 89.4136 136.654 82.8385 134.715 75.7592C134.541 75.1191 134.774 73.8584 133.669 74.1299C132.351 74.4597 133.281 75.6234 133.475 76.2246C136.13 84.5259 139.096 92.6914 144.194 99.9066C146.171 102.719 148.342 105.434 149.641 109.546C143.574 105.008 139.154 99.4217 132.176 97.5597C143.167 104.814 152.684 113.716 162.104 123.395C159.429 124.093 157.103 123.782 154.835 123.821C148.342 123.938 141.752 123.356 135.626 126.381C133.204 127.584 130.606 128.534 128.939 131.25C131.633 131.095 133.611 129.776 135.704 128.767C139.891 126.731 144.116 124.849 148.943 125.121C149.602 125.16 150.687 125.043 150.823 125.334C152.122 128.302 154.118 126.614 155.688 125.994C162.007 123.53 167.008 126.692 172.106 130.028L172.048 130.067Z" fill="#ED1C24"/>
<path d="M191.742 96.2607C189.842 95.7176 187.865 96.4546 185.907 95.737C180.596 93.8169 179.511 91.8967 181.12 86.6987C178.561 88.1728 178.115 91.567 180.17 94.0496C180.848 94.8642 181.701 95.5043 182.67 95.8534C188.388 97.8317 194.262 98.7045 200.232 97.308C205.989 95.9698 208.121 90.3257 204.981 85.3216C204.283 84.1967 203.585 83.033 202.693 82.0826C197.751 76.8458 197.595 70.581 198.584 64.006C198.758 62.881 199.418 62.6871 200.251 62.4543C207.985 60.3014 215.719 58.1679 223.434 55.9568C224.674 55.6077 225.12 55.9568 225.798 57.0624C229.636 63.3659 230.16 70.4647 230.935 77.5052C231.4 81.7722 229.791 85.4962 227.562 88.9874C225.876 91.6252 224.093 94.166 222.406 96.8038C221.321 98.4912 220.681 100.392 220.352 102.37C220.255 102.933 219.867 103.825 220.817 104.019C221.786 104.213 221.709 103.321 221.864 102.7C223.22 97.1141 226.613 92.7307 230.043 88.1534C232.641 97.9481 218.452 118.507 204.632 125.296C204.515 125.179 204.38 125.063 204.322 124.908C203.895 123.86 205.097 121.999 203.527 121.766C202.131 121.552 202.5 123.492 202.131 124.442C199.01 132.472 191.063 135.11 183.911 130.339C181.527 128.748 179.278 126.964 176.739 125.121C176.681 126.731 177.921 127.39 178.076 128.942C173.289 127.584 169.199 125.199 165.206 122.658C161.213 120.117 156.619 117.712 154.642 113.445C152.761 109.333 148.865 105.9 149.234 100.217C152.141 102.622 154.661 104.698 157.782 107.277C156.987 104.349 155.339 102.952 153.731 101.536C151.754 99.7907 149.524 98.2778 148.652 95.5818C148.245 91.0239 148.303 86.4466 148.613 81.8886C148.672 80.5891 148.71 79.2702 148.768 77.9707C149.35 75.8954 148.594 73.7231 149.195 71.6284C149.466 69.9992 150.358 68.6415 151.133 67.245C155.824 58.8662 156.851 58.4201 166.311 59.6226C171.079 60.2238 175.789 61.3876 180.654 60.8833C182.302 60.7087 184.105 60.7087 184.492 58.7498C184.861 56.9266 183.523 55.7629 182.069 54.9483C178.348 52.8535 174.2 52.5626 169.8 51.942C178.348 46.3948 186.721 40.6732 191.78 31.0918C195.987 36.7553 201.608 39.3349 207.016 42.186C210.776 44.1644 214.653 45.9488 217.968 48.6641C218.646 49.2266 219.848 49.7503 219.421 50.817C219.072 51.7092 217.909 51.2243 217.134 51.2049C211.59 51.0692 206.551 52.776 201.685 55.2004C199.262 56.4029 198.138 58.5364 197.537 60.9803C195.754 68.3893 195.425 75.5851 201.007 81.811C201.996 82.9166 202.752 84.2743 203.507 85.5932C206.337 90.5002 204.283 95 198.681 96.2219C196.355 96.5128 194.01 96.4934 191.684 96.2219L191.742 96.2607Z" fill="#FDD09E"/>
<path d="M77.2048 327.979C77.2048 327.979 77.3986 327.978 77.4762 328.017C86.2181 331.819 85.2877 330.306 83.8533 340.721C82.7872 348.402 82.7097 356.16 81.7405 363.841C80.907 370.435 81.2753 377.069 81.159 383.682C79.7246 383.527 79.5696 382.208 79.0656 381.277C78.1158 379.532 77.3017 377.709 75.9836 376.196C75.5572 375.711 75.0726 375.129 74.3166 375.439C73.7157 375.672 73.6576 376.332 73.6188 376.894C73.4831 378.31 73.3281 379.726 73.3862 381.142C73.677 387.678 73.6576 394.214 73.5025 400.731C72.9986 421.523 74.8981 442.102 77.7669 462.661C80.0348 478.972 81.9344 495.323 81.5079 511.848C81.411 515.184 81.0427 518.462 80.0348 521.643C79.5114 523.291 78.7942 524.882 76.7396 525.095C74.4136 525.347 72.1651 524.203 69.8197 524.727C69.4514 524.901 69.1412 524.862 68.8699 524.533C64.1403 521.41 58.6935 519.916 53.5375 517.744C49.0793 515.843 44.4854 514.195 40.3955 511.499C43.9621 498.426 46.2106 485.082 48.6141 471.757C51.289 456.842 53.3825 441.849 54.7005 426.779C55.1851 421.329 55.5146 415.86 55.4759 410.351C55.3208 386.378 59.9147 363.317 69.2963 341.264C71.3122 336.513 73.3087 331.644 77.2435 327.998L77.2048 327.979Z" fill="#0D8D4A"/>
<path d="M264.953 490.571C262.356 490.164 259.739 489.776 257.142 489.31C254.079 488.767 252.083 487.041 251.133 484.035C250.047 480.602 249.505 477.072 248.865 473.542C247.082 463.96 246.248 454.282 246.248 444.546C245.783 438.882 246.171 433.199 246.054 427.516C246.287 424.297 245.589 421.038 246.442 417.838C251.404 418.459 256.424 418.769 261.309 419.739C270.477 421.542 279.336 420.03 288.213 418.071C290.675 417.528 293.156 417.004 295.599 417.004C296.606 418.556 293.369 420.243 295.928 421.426C298.118 422.435 297.44 419.506 298.894 419.118C299.979 428.059 303.313 436.516 304.244 445.476C304.592 453.118 304.573 460.76 304.244 468.402C303.681 472.359 303.488 476.374 302.635 480.311C301.898 483.705 299.94 485.819 296.645 486.692C290.016 488.457 283.329 489.931 276.467 490.532C272.629 490.862 268.791 490.843 264.953 490.532V490.571Z" fill="#EE1C24"/>
<path d="M142.546 197.311C142.507 202.218 140.957 206.796 139.348 211.334C136.809 218.569 136.867 225.997 137.642 233.484C137.72 234.318 137.371 235.908 139.077 235.695C140.433 235.52 140.123 234.26 140.046 233.406C139.677 228.596 142.372 225.318 145.667 222.506C150.338 218.53 155.281 214.864 159.991 210.927C164.391 207.242 168.249 203.111 169.315 196.904C171.311 198.611 171.873 200.822 172.552 202.936C176.138 214.147 177.863 225.706 179.511 237.324C181.158 249.039 180.344 260.482 177.262 271.868C176.564 274.428 175.828 274.777 173.54 273.4C163.577 267.445 153.769 261.142 142.895 256.894C140.879 256.099 138.805 255.401 136.712 254.838C131.129 253.364 125.702 253.597 120.468 256.312C118.743 257.205 116.941 258.039 114.401 258.465C118.181 251.948 123.919 247.255 126.594 240.544C129.288 233.775 130.335 226.715 130.645 219.5C130.974 212.828 130.974 206.156 130.645 199.503C129.85 184.064 126.245 169.421 118.259 156.057C117.483 154.777 117.212 154.04 119.053 153.439C130.645 149.773 142.217 145.991 154.176 142.441C145.415 151.674 143.787 163.253 142.973 175.084C142.449 180.709 142.895 186.353 142.74 191.978C142.682 193.762 142.973 195.546 142.546 197.311Z" fill="#CA6C39"/>
<path d="M291.799 278.636C289.183 294.016 282.844 307.011 268.752 315.177C260.417 320.006 252.296 325.224 242.778 327.59C239.483 328.405 236.169 329.084 232.757 329.2C229.307 329.51 225.857 329.452 222.387 329.2C218.956 327.202 218.782 323.517 217.464 319.871C222.348 320.646 226.903 321.577 231.536 321.81C233.629 322.101 235.723 322.159 237.816 321.791C239.658 321.364 241.48 320.937 243.321 320.53C243.864 320.414 244.736 320.453 244.717 319.832C244.601 316.826 246.927 317.291 248.671 316.884C250.958 316.341 252.994 315.429 253.653 312.888C253.982 311.628 255.087 311.86 255.901 311.531C257.607 310.813 259.177 309.998 259.41 307.884C259.642 305.906 258.169 305.033 256.832 304.199C252.024 301.173 246.733 299.137 241.615 296.732C238.921 295.452 236.13 294.327 233.726 292.348C239.6 292.542 244.988 295.335 250.842 295.646C252.955 295.975 255.048 296.014 257.161 295.626C259.662 294.385 260.185 291.825 258.402 289.362C257.025 287.461 255.048 286.239 252.916 285.482C241.015 281.274 229.191 276.735 216.708 274.446C216.339 274.388 215.99 274.291 215.254 274.136C218.607 270.238 222.852 267.561 225.895 263.721C229.888 263.333 233.881 263.372 237.874 263.701C241.053 264.128 244.019 265.369 247.043 266.339C248.186 266.708 249.388 266.94 250.59 267.096C251.21 267.173 252.024 267.037 252.063 266.203C252.083 265.486 251.288 265.524 250.784 265.369C249.136 264.807 247.469 264.264 245.608 263.624C247.702 261.102 250.319 260.229 253.11 259.706C255.417 259.434 257.704 259.395 260.01 259.725C267.434 259.997 273.773 263.294 279.937 267.27C280.072 264.613 279.084 263.061 276.002 261.374C270.865 258.561 265.244 257.417 259.487 256.893C257.936 256.719 257.995 255.594 257.975 254.411C257.898 250.299 258.247 246.168 257.781 242.075C257.491 236.645 258.111 236.179 263.538 237.556C264.837 237.886 266.077 238.41 267.085 239.282C268.907 240.834 269.392 240.097 269.78 238.099C270.497 234.492 271.66 230.962 272.319 227.335C272.668 225.376 273.385 225.55 274.722 226.229C277.01 227.374 279.452 228.227 282.011 228.421C284.22 228.595 285.17 229.779 285.538 231.776C286.411 236.625 287.302 241.455 288.213 246.284C289.473 253.014 291.179 259.667 291.838 266.514C292.129 270.548 292.129 274.602 291.838 278.636H291.799Z" fill="#E2F4FD"/>
<path d="M238.863 314.42C233.261 313.936 227.95 312.326 222.659 310.522C220.662 309.843 218.646 308.99 216.359 309.901C224.442 315.041 233.727 315.875 243.069 317.097C242.081 319.347 240.22 319.696 238.398 320.103C236.305 320.414 234.192 320.414 232.098 320.103C220.236 318.765 208.955 314.983 197.518 311.88C194.068 310.949 190.598 310.018 187.109 309.319C185.752 309.048 185.326 308.582 185.636 307.322C186.334 304.412 185.908 301.329 186.857 298.458C187.148 295.219 187.167 291.98 186.857 288.741C186.974 285.463 186.276 282.34 184.861 279.412C184.318 278.306 184.396 277.744 185.423 276.851C192.75 270.47 201.201 266.223 210.447 263.468C214.091 262.382 217.541 260.908 220.778 258.911C222.019 258.135 223.221 257.165 224.985 257.01C224.927 258.949 224.209 260.579 223.279 262.072C220.061 267.289 215.836 271.343 209.846 273.186C209.129 273.399 208.354 273.438 208.392 274.524C208.451 275.92 209.458 275.552 210.234 275.629C224.209 276.948 237.216 281.758 250.183 286.724C252.393 287.577 254.409 288.896 255.94 290.758C256.483 291.437 257.743 292.135 256.657 293.338C253.013 293.706 249.389 293.687 245.744 293.338C241.383 292.814 237.409 290.933 233.261 289.652C230.935 288.935 228.629 288.023 225.993 288.256C226.38 290.777 228.241 291.999 230.005 293.202C234.328 296.15 239.193 298.051 243.922 300.165C247.722 301.852 251.598 303.404 255.048 305.751C255.921 306.333 257.316 306.817 256.89 308.233C256.463 309.572 255.184 309.707 253.866 309.785C245.027 310.25 236.867 307.729 228.881 304.374C227.059 303.598 225.314 302.589 223.453 301.969C222.639 301.697 221.709 299.835 220.74 301.697C219.848 303.443 221.612 303.52 222.465 303.889C229.307 306.934 236.363 309.319 243.69 310.89C246.21 311.434 248.671 312.326 251.618 312.035C250.959 313.586 250.009 314.188 248.729 314.382C245.473 314.711 242.217 314.692 238.96 314.382L238.863 314.42Z" fill="#FDD09E"/>
<path d="M201.395 230.865C201.434 231.777 201.492 232.708 201.53 233.619C202.112 235.52 201.395 237.518 201.937 239.419C201.996 246.168 204.031 252.607 205.213 259.163C205.698 261.898 205.213 263.411 202.461 264.497C198.72 265.952 195.192 267.911 191.18 269.85C191.49 266.592 190.928 263.74 191.761 260.948C191.218 257.515 191.916 254.023 191.373 250.59C191.354 244.655 189.997 238.856 189.687 232.96C189.435 228.266 189.784 223.475 188.543 218.956C185.248 207.047 182.728 194.828 176.448 183.947C173.308 178.517 172.998 172.911 174.762 166.976C176.196 162.166 177.844 157.453 180.034 152.915C180.732 151.479 181.701 150.8 183.31 150.684C184.686 150.587 186.159 150.277 187.458 150.296C191.335 150.296 193.816 148.415 195.735 145.389C196.762 143.799 197.266 144.439 197.983 145.699C205.058 157.938 207.559 170.836 203.895 184.743C201.55 193.665 201.724 202.897 200.794 211.993C200.464 215.058 200.464 218.122 200.794 221.187C200.852 222.292 200.91 223.398 200.949 224.503C201.53 226.598 200.774 228.77 201.375 230.846L201.395 230.865Z" fill="#E2F4FD"/>
<path d="M237.041 197.447C241.131 208.192 248.322 217.288 252.509 227.956C255.727 236.199 256.192 244.694 255.882 253.344C255.785 255.885 254.215 257.34 251.928 257.941C248.807 258.775 245.822 259.92 242.972 261.413C242.333 261.743 241.499 262.111 240.84 261.995C236.712 261.258 232.544 261.588 228.396 261.549C227.156 261.549 226.71 261.258 227.02 259.92C227.252 258.93 227.175 257.844 227.175 256.816C227.136 253.985 225.644 253.189 223.162 254.683C221.224 255.847 219.305 257.068 217.347 258.193C216.049 258.95 215.351 258.736 215.157 257.01C213.296 241.319 211.435 225.628 212.385 209.782C212.657 205.36 213.258 200.977 213.742 196.244C216.068 197.679 217.483 199.697 218.821 201.597C224.132 209.123 231.963 213.429 239.406 218.239C239.91 218.568 240.569 219.208 241.131 218.51C241.654 217.87 241.344 217.036 241.092 216.338C239.522 211.974 237.855 207.649 237.022 203.071C236.692 201.229 236.343 199.406 237.06 197.466L237.041 197.447Z" fill="#CA6C39"/>
<path d="M77.2046 327.978C76.216 330.771 74.1032 332.905 72.8045 335.523C66.0784 349.061 61.8528 363.375 59.0422 378.174C56.8906 389.598 56.2316 401.138 56.1347 412.756C56.0378 424.723 54.5065 436.574 52.9558 448.444C50.7461 465.337 47.6059 482.037 44.272 498.717C43.5354 502.402 42.7407 506.087 41.9072 509.753C41.7327 510.548 41.4614 511.46 40.3371 511.479C39.6199 511.014 38.9027 510.568 38.2049 510.102C35.2199 508.066 33.8049 505.835 34.5221 501.665C37.2164 486.013 37.856 470.089 39.7944 454.34C42.8957 429.048 43.3416 403.407 49.2923 378.465C52.665 364.306 58.1893 350.981 63.8687 337.676C65.4194 334.03 67.3577 330.538 68.8696 326.873C69.4705 325.399 70.1683 325.282 71.3895 325.767C73.3279 326.524 75.2662 327.261 77.2046 327.998V327.978Z" fill="#00A651"/>
<path d="M139.465 225.473C140.279 220.1 140.162 214.456 142.12 209.646C144.64 203.401 144.795 197.214 144.776 190.832C144.737 181.077 144.776 171.185 147.199 161.778C150.959 147.27 159.914 137.029 175.014 133.305C179.666 132.161 181.701 133.499 182.457 137.592C182.69 138.853 182.496 139.706 181.139 140.268C176.875 142.053 173.987 145.408 171.409 149.093C166.078 156.735 163.597 165.366 162.337 174.482C161.872 177.954 161.135 181.387 159.972 184.684C159.294 186.624 158.635 188.641 156.231 189.998C155.902 183.734 155.805 177.818 157.685 171.999C158.402 169.75 159.158 167.5 159.837 165.25C160.011 164.668 160.379 163.892 159.333 163.698C158.557 163.543 158.189 163.931 157.86 164.649C154.526 172.174 153.595 180.087 153.905 188.214C153.983 190.154 155.088 191.453 156.852 191.977C158.441 192.442 159.197 190.968 159.953 189.979C162.473 186.701 163.287 182.764 163.461 178.768C163.946 168.295 166.679 158.636 172.94 150.121C175.169 147.076 177.534 144.128 181.546 142.848C181.76 145.331 180.693 147.251 179.589 149.074C174.142 158.015 171.971 167.965 170.905 178.167C170.013 186.818 168.269 195.158 163.888 202.78C161.543 206.873 158.713 210.538 154.642 212.982C149.641 215.988 145.241 219.635 141.539 224.154C141.19 224.581 140.744 224.969 140.318 225.337C140.201 225.434 139.988 225.395 139.445 225.453L139.465 225.473Z" fill="#ED1C24"/>
<path d="M234.327 201.287C234.754 205.69 236.789 209.724 237.603 214.573C227.33 208.89 219.48 201.52 214.149 191.57C209.691 183.249 208.063 174.134 206.667 164.96C205.504 157.298 203.217 150.064 198.991 143.508C198.778 143.198 198.545 142.887 198.39 142.558C197.731 141.219 198.468 139.998 199.204 139.202C200.135 138.233 200.833 139.629 201.434 140.153C207.908 145.642 211.125 153.07 213.354 161.003C214.614 165.464 215.603 169.983 216.766 174.463C217.192 176.073 217.638 177.702 219.421 178.575C216.611 163.078 214.362 147.329 200.154 136.836C200.988 136.002 202.034 136.623 202.984 137.03C207.656 139.008 210.951 142.344 212.792 147.077C212.967 147.523 213.025 147.988 213.238 148.415C213.548 149.055 214.169 149.075 214.692 148.881C215.273 148.667 215.157 148.085 214.905 147.698C212.579 143.741 210.815 139.338 206.396 137.03C204.477 136.021 202.616 134.897 200.775 133.752C200.193 133.384 199.301 132.938 199.67 132.026C199.96 131.308 200.794 131.483 201.434 131.464C206.59 131.211 210.854 133.345 214.44 136.778C223.453 145.428 228.687 156.212 231.459 168.237C232.66 173.474 233.571 178.808 233.901 184.2C234.347 188.797 233.959 193.393 234.114 197.99C234.153 199.115 233.901 200.24 234.327 201.326V201.287Z" fill="#ED1C24"/>
<path d="M76.7005 525.076C80.3446 522.205 80.3446 517.88 80.5191 513.981C81.0231 502.945 80.1896 491.967 79.0459 480.97C77.8442 469.469 76.4485 457.987 74.8591 446.563C72.0873 426.74 72.8238 406.821 72.6688 386.921C72.6494 383.644 72.6688 380.346 72.6688 377.069C72.6688 375.711 72.5912 374.12 74.1031 373.713C75.4794 373.325 76.1578 374.857 76.875 375.769C78.7552 378.155 79.7437 381.045 81.1781 383.682C81.4107 390.49 81.6239 397.298 81.8565 404.106C82.3024 409.459 81.9147 414.812 82.0504 420.165C82.0892 421.29 81.8372 422.415 82.2636 423.521C82.4381 435.061 83.698 446.543 84.8028 458.006C86.5474 476.199 87.4196 494.392 86.3535 512.662C86.1597 515.96 86.1985 519.276 86.2372 522.593C86.2566 524.823 85.3843 526.065 83.0583 525.832C80.9455 525.619 78.7164 526.278 76.7199 525.095L76.7005 525.076Z" fill="#00A651"/>
<path d="M264.507 389.423C275.575 389.171 286.566 388.298 297.401 385.971C299.204 385.583 299.863 385.816 299.785 387.891C299.592 392.818 299.029 397.686 298.487 402.573C298.041 406.511 295.928 408.799 292.206 409.595C280.441 412.116 268.636 414.017 256.599 411.282C253.75 410.642 250.823 410.39 247.915 410.06C246.616 409.924 246.171 409.401 246.19 408.082C246.287 402.03 246.287 395.979 246.326 389.928C250.609 389.268 254.913 389.831 259.196 389.637C260.96 389.559 262.763 389.889 264.507 389.443V389.423Z" fill="#EE1C24"/>
<path d="M128.377 216.066C127.854 225.337 126.672 234.492 123.124 243.181C121.38 247.428 118.996 251.23 115.274 254.081C114.034 255.012 113.588 255.07 112.715 253.402C110.758 249.62 111.126 246.672 113.917 243.394C117.251 239.476 117.135 234.24 117.91 229.429C118.434 226.171 118.472 222.854 118.724 219.557C119.054 210.79 119.054 202.004 118.724 193.237C117.871 183.171 115.584 173.473 111.262 164.299C110.622 162.942 109.827 161.642 109.033 160.362C106.571 156.386 103.295 153.903 98.2748 154.543C96.6465 154.757 94.9602 154.582 93.0024 154.582C94.4368 152.197 96.4915 151.343 98.9144 151.169C110.467 150.335 115.914 153.612 120.663 164.241C124.869 173.687 126.478 183.753 127.641 193.916C127.97 196.729 128.106 199.56 128.339 202.392C128.687 206.95 128.649 211.508 128.339 216.066H128.377Z" fill="#CC8F92"/>
<path d="M108.354 187.129C95.9292 185.596 83.737 183.347 72.9985 176.267C71.6417 175.375 71.506 174.696 72.0294 173.338C75.4409 164.203 89.5908 155.126 99.2438 155.941C103.508 156.309 106.28 158.85 108.393 162.322C111.746 167.811 113.181 173.998 114.557 180.166C115.08 182.454 115.855 184.704 115.836 187.09C113.336 187.497 110.835 187.439 108.335 187.129H108.354Z" fill="#E2F4FD"/>
<path d="M175.285 288.295C175.537 289.362 175.789 290.429 176.041 291.495C176.429 291.922 176.797 292.349 176.778 292.969C176.681 296.907 177.03 300.844 176.584 304.762C175.905 311.628 173.037 317.408 168.016 322.121C163.442 326.407 157.995 329.278 151.967 332.09C156.851 318.746 159.643 305.383 160.728 291.67C161.019 289.75 161.077 287.83 160.689 285.909C160.108 282.864 159.953 279.761 159.1 276.735C158.305 273.942 159.1 272.876 162.066 272.333C170.381 270.781 174.355 274.001 176.022 283.64C177.127 285.425 175.014 286.666 175.266 288.314L175.285 288.295Z" fill="#E2F4FD"/>
<path d="M230.993 44.416C233.242 50.1571 234.327 56.0727 234.909 62.0659C236.382 77.3884 235.742 92.672 233.552 107.878C231.924 119.166 231.381 130.454 233.087 141.781C233.087 141.878 233.106 141.975 233.125 142.072C233.571 146.068 233.591 145.913 229.753 145.176C225.74 144.4 222.62 142.868 219.906 139.454C215.37 133.713 211.048 131.579 203.585 129.679C207.559 126.052 211.707 123.491 216.863 123.065C219.014 122.89 221.205 122.774 223.356 123.259C223.86 123.375 224.771 123.996 224.829 122.813C224.868 122.037 224.209 121.649 223.472 121.668C221.011 121.726 218.568 121.823 216.107 121.94C215.176 121.979 214.246 122.153 213.315 122.27C213.064 121.164 213.897 120.834 214.382 120.33C215.293 119.36 216.165 118.313 217.25 117.595C229.443 109.41 232.35 97.036 232.815 83.4786C233.203 72.3843 231.594 61.4065 231.013 50.351C230.916 48.3727 231.013 46.3944 231.013 44.416H230.993Z" fill="#ED1C24"/>
<path d="M239.212 155.203C250.183 158.423 259.351 163.427 265.845 172.562C266.543 173.551 267.163 174.637 267.706 175.743C270.788 182.085 270.536 182.628 264.546 186.178C259.216 189.339 253.73 191.938 247.508 192.772C245.356 193.063 244.697 192.559 244.562 190.231C243.941 179.448 242.526 168.761 239.871 158.268C239.658 157.453 239.522 156.619 239.212 155.203Z" fill="#E2F4FD"/>
<path d="M79.2591 561.055C76.9331 560.667 74.5683 560.453 72.2811 559.871C62.4924 557.408 52.5874 555.313 43.6128 550.387C40.9767 548.932 38.1661 547.788 35.181 547.109C32.6612 546.547 31.7308 544.025 29.9281 542.551C27.8928 540.883 27.6408 538.982 28.2805 536.519C29.0752 533.416 29.521 530.216 30.025 527.054C30.2188 525.813 30.7616 525.425 31.9246 525.658C32.0215 525.658 32.1184 525.658 32.2153 525.697C38.5538 527.19 38.6894 525.309 37.1 532.834C36.9062 533.765 36.6154 534.657 36.3053 535.549C34.7352 540.049 34.7158 540.127 38.7282 542.512C40.9185 543.812 43.2446 544.898 45.4543 546.178C47.0631 547.09 47.9741 546.857 48.6138 545.014C49.6411 542.066 50.9592 539.235 51.9671 536.267C52.4905 534.735 53.2271 534.444 54.6614 534.812C56.6773 535.336 58.7126 535.763 60.7672 536.093C62.7444 536.403 63.5003 537.062 62.725 539.273C61.4651 542.939 60.6897 546.76 59.4686 550.426C58.887 552.171 59.5267 552.598 60.9998 552.811C64.8184 553.393 68.6563 553.936 72.4555 554.615C74.0837 554.906 74.6265 554.208 74.8978 552.753C75.4406 549.883 76.1384 547.032 76.6811 544.142C76.9719 542.629 77.5146 542.163 79.1816 542.512C83.8336 543.463 83.9112 543.366 83.4653 548.04C83.1552 551.434 82.6706 554.79 82.3217 558.184C82.031 560.996 82.0697 560.996 79.2785 561.055H79.2591Z" fill="#00A651"/>
<path d="M76.0419 541.018C75.0146 543.928 75.1115 547.109 73.7934 549.979C73.1537 551.376 72.4559 552.093 70.8471 551.899C68.6955 551.647 66.5052 551.666 64.3536 551.356C60.884 550.852 60.5738 550.27 61.7175 546.856C62.706 543.908 63.7721 540.96 64.7995 538.031C65.3616 536.441 65.1096 535.432 63.1906 534.986C59.876 534.211 56.6196 533.241 53.3826 532.193C51.8707 531.709 51.1728 532.038 50.6883 533.551C49.7191 536.616 48.5755 539.622 47.5675 542.667C47.1411 543.947 46.5983 544.374 45.3772 543.559C44.6018 543.036 43.6908 542.686 42.8767 542.24C41.1322 541.29 38.8062 540.747 37.8176 539.292C36.7321 537.682 38.7674 535.685 39.0582 533.784C39.3683 531.767 39.8529 529.711 39.7947 527.674C39.7172 524.629 36.6934 524.94 34.8519 524.047C33.7665 523.524 31.8087 524.513 31.3241 523.019C30.7233 521.157 31.2272 519.043 31.77 517.162C32.1382 515.882 33.2043 516.813 33.844 517.104C38.3797 519.237 42.993 521.216 47.3737 523.64C58.3447 529.711 70.285 532.31 82.5547 533.629C84.2411 533.803 84.9195 534.23 84.7451 535.956C84.59 537.45 84.6482 538.982 84.59 540.495C81.7794 541.251 78.8525 540.281 76.0419 541.018Z" fill="#00A651"/>
<path d="M172.843 180.747C174.393 182.338 175.014 184.006 175.653 185.615C183.116 204.254 187.846 223.534 189.105 243.647C189.648 252.433 189.726 261.219 188.892 270.005C188.563 273.419 184.57 275.843 181.585 274.602C179.956 273.923 179.937 272.934 180.131 271.479C181.023 264.633 181.817 257.786 182.67 250.939C183.601 243.492 181.74 236.276 180.771 229.003C179.491 219.286 176.564 209.995 173.347 200.821C171.563 195.74 171.098 190.775 172.106 185.557C172.378 184.122 172.552 182.648 172.843 180.786V180.747Z" fill="#CC8F92"/>
<path d="M146.772 291.399C146.171 289.614 144.795 288.703 143.613 287.655C142.411 286.589 141.131 285.561 140.356 284.125C139.445 282.438 138.437 280.401 139.561 278.792C140.55 277.376 142.837 277.686 144.562 277.259C145.28 277.065 145.609 277.531 145.725 278.152C146.268 281.1 148.497 282.574 150.881 283.796C152.606 284.688 153.421 285.871 153.246 287.849C153.11 289.343 153.188 290.875 153.227 292.388C153.285 294.715 152.781 296.267 150.145 297.295C143.554 299.875 141.887 309.786 147.276 314.305C149.932 316.535 150.726 318.611 149.369 321.811C148.691 323.401 148.245 324.643 146.113 324.584C144.175 324.526 142.837 325.923 141.752 327.397C140.976 328.464 140.337 329.627 139.716 330.791C138.114 333.817 135.633 335.064 132.273 334.534C129.346 334.069 128.726 333.138 129.831 330.151C131.478 325.729 134.444 322.296 138.747 320.317C140.976 319.289 141.267 318.902 139.096 317.369C136.034 315.178 134.425 312.094 134.425 308.156C134.444 298.168 137.042 294.541 146.791 291.457L146.772 291.399Z" fill="#02A651"/>
<path d="M202.519 215.426C203.759 203.401 204.981 191.376 206.221 179.351C207.5 179.254 207.462 180.223 207.752 180.805C211.571 188.311 212.366 196.244 211.513 204.526C209.826 220.702 210.117 236.839 213.102 252.879C213.393 254.45 213.393 256.098 213.761 257.65C214.285 259.822 213.315 260.831 211.396 261.335C209.478 261.84 208.121 261.413 207.403 259.357C205.329 253.403 204.69 247.177 203.934 240.989C203.255 235.365 202.984 229.682 202.519 224.018C202.209 221.148 202.228 218.277 202.519 215.407V215.426Z" fill="#CC8F92"/>
<path d="M60.2637 217.385C60.6513 213.138 61.039 209.588 61.291 206C61.4073 204.371 62.2214 204.313 63.3456 204.914C66.6408 206.679 69.9554 206.854 73.4057 205.282C74.3361 204.856 75.4216 204.584 76.1 206.233C79.1432 213.623 84.0666 216.008 91.665 213.196C94.8051 212.052 96.6465 212.711 98.8175 214.767C103.373 219.053 108.664 220.062 114.537 217.715C115.177 217.463 115.952 216.687 116.592 217.405C117.154 218.025 116.573 218.859 116.321 219.519C114.479 224.212 110.467 226.792 106.551 229.449C105.466 230.186 105.059 229.1 104.574 228.48C101.803 225.008 99.0113 221.536 96.3558 217.987C95.1734 216.415 94.3011 216.183 92.7892 217.637C89.5909 220.702 86.1406 223.553 82.923 226.598C81.6631 227.781 81.1203 227.704 80.3062 226.171C77.7476 221.439 74.9758 216.803 72.4171 212.052C71.5836 210.519 70.944 210.228 69.4515 211.314C66.6408 213.351 63.6752 215.155 60.2831 217.366L60.2637 217.385Z" fill="#ED1C24"/>
<path d="M122.93 334.864C120.701 335 121.515 333.855 122.116 332.827C124.714 328.541 127.272 324.235 129.947 320.007C130.877 318.552 130.858 317.68 129.366 316.574C126.187 314.208 123.221 311.551 120.061 309.165C118.472 307.982 118.608 307.167 119.887 305.887C124.423 301.329 128.803 296.655 133.378 292.116C135.374 290.138 135.355 288.198 133.901 286.065C132.525 284.028 131.033 282.089 129.695 280.013C129.23 279.276 127.737 278.345 128.978 277.55C130.063 276.852 131.556 275.455 133.068 276.833C133.959 277.647 134.89 278.151 136.014 278.326C136.964 278.481 137.274 279.005 137.255 279.878C137.138 283.427 138.941 285.968 141.538 288.101C143.012 289.323 143.438 290.08 141.19 291.108C131.381 295.588 129.773 308.564 135.006 315.527C136.751 317.835 136.964 319.095 134.27 320.919C130.839 323.246 128.319 326.718 127.834 330.907C127.447 334.263 125.566 334.748 122.95 334.845L122.93 334.864Z" fill="#ED1C24"/>
<path d="M72.0487 568.405C58.267 566.233 45.3576 561.694 33.4368 554.421C31.324 553.141 29.4244 551.57 27.8737 549.63C25.9741 547.283 25.7609 545.731 26.6719 543.365C40.2985 552.539 55.2432 558.552 71.4866 561.519C73.1342 561.83 74.8399 561.869 76.4294 562.547C77.9025 563.168 80.4805 561.655 80.8294 563.343C81.1202 564.662 81.0233 566.659 80.5581 568.288C77.7281 568.929 74.8981 568.657 72.0681 568.424L72.0487 568.405Z" fill="#00A651"/>
<path d="M68.0558 196.263C66.2919 195.856 64.7994 195.138 64.6249 193.082C64.528 191.86 64.2954 190.406 65.2064 189.552C66.2144 188.641 67.3774 189.785 68.2109 190.289C70.3043 191.55 72.2039 191.026 73.9678 189.901C77.0304 187.942 79.7635 189.339 82.5353 190.522C83.4463 190.91 83.4851 191.783 83.4657 192.675C83.4269 195.255 84.2798 197.679 86.5089 198.92C88.9319 200.297 91.1997 198.959 93.2932 197.466C95.4253 195.933 97.2474 193.781 100.523 195.08C102.655 195.933 104.846 195.972 104.574 199.25C104.439 200.899 106.067 202.644 107.482 202.664C109.42 202.664 111.766 202.858 113.355 200.937C114.441 199.657 115.08 198.009 116.534 197C119.248 201.267 116.689 206.698 111.32 208.153C109.401 208.444 107.482 208.463 105.563 208.153C101.764 207.571 100.097 204.72 98.7787 201.616C97.887 199.541 96.9179 198.998 95.2703 200.879C94.7081 201.519 94.0103 202.024 93.3513 202.547C90.7733 204.564 88.0015 206.64 84.6093 204.952C81.1397 203.226 79.0269 200.297 78.8912 196.186C78.8718 195.429 79.2789 194.285 78.2515 193.936C77.3987 193.664 76.7009 194.459 76.0612 195.002C75.4022 195.546 74.7625 196.108 73.8903 196.244C71.9519 196.515 70.0136 196.496 68.0752 196.244L68.0558 196.263Z" fill="#FDCB08"/>
<path d="M24.9078 549.979C33.4753 558.3 44.1363 562.024 54.6033 566.039C61.6008 568.716 68.8696 570.384 76.3904 570.733C77.4759 570.791 79.3173 570.209 79.3948 571.858C79.4724 573.564 78.3675 575.097 76.4485 575.562C75.9058 575.698 75.2855 575.717 74.7622 575.601C62.725 572.866 50.2614 571.877 38.7864 566.873C35.6657 565.515 32.5449 564.177 29.5986 562.451C23.1439 558.649 22.7562 557.757 24.9078 549.979Z" fill="#00A651"/>
<path d="M242.333 202.954C238.088 198.687 237.7 192.966 236.692 187.535C235.645 181.872 235.161 176.131 233.998 170.467C232.428 162.806 229.927 155.532 226.205 148.666C225.721 147.774 225.294 146.824 224.655 145.524C229.171 145.544 232.35 147.27 234.657 150.703C236.576 153.574 237.525 156.851 238.32 160.168C240.995 171.417 242.623 182.822 242.992 194.382C243.36 196.864 243.088 199.366 243.147 201.868C243.147 202.411 243.185 203.032 242.313 202.935L242.333 202.954Z" fill="#CC8F92"/>
<path d="M146.404 42.6119C147.141 37.1035 149.757 32.4874 153.537 28.4919C157.608 24.2055 162.318 20.7725 167.648 18.2123C174.025 15.1284 180.48 12.2773 187.245 10.1438C189.145 9.54254 191.044 9.05765 193.079 9.21282C194.223 9.30979 195.638 8.78611 195.813 10.7257C195.968 12.3161 195.58 13.1695 193.835 13.732C180.596 17.9796 168.54 24.5353 157.511 32.9529C153.673 35.8622 150.029 39.0431 147.955 43.601C147.741 44.0859 147.489 44.8036 146.772 44.435C145.997 44.0471 146.52 43.2519 146.404 42.6119Z" fill="white"/>
<path d="M221.786 656.927C222.833 654.34 224.758 653.222 227.563 653.571C230.276 653.92 233.009 654.211 235.704 654.696C238.805 655.258 240.666 657.159 241.364 660.282C242.255 664.297 242.701 668.893 240.142 671.725C238.32 673.723 234.037 672.016 230.916 671.396C226.787 670.581 223.085 669.029 221.844 664.374C221.457 661.892 221.554 659.409 221.786 656.927Z" fill="#E7BA8A"/>
<path d="M139.522 262.518C135.781 262.848 132.816 264.923 129.811 266.901C124.965 270.082 119.984 272.933 114.285 274.272C112.948 274.582 110.932 275.435 110.312 274.407C109.401 272.895 110.757 271.188 111.882 269.888C113.859 267.6 116.65 266.572 119.305 265.33C121.457 264.322 123.977 263.721 125.159 261.063C117.193 261.781 111.959 268.88 103.779 269.753C104.593 267.949 105.795 266.94 107.036 266.009C112.851 261.645 119.344 258.658 126.284 256.641C128.125 256.098 130.044 256.389 131.924 256.447C132.932 256.486 133.843 256.777 133.901 258.018C133.959 259.201 134.58 259.454 135.588 259.143C137.72 258.814 139.852 258.872 142.004 259.124C144.601 259.415 147.005 260.307 149.311 261.49C149.156 262.867 148.071 262.266 147.373 262.324C144.775 262.499 142.139 262.13 139.542 262.537L139.522 262.518Z" fill="#FDD09E"/>
<path d="M270.342 197.291C271.447 197.815 272.513 198.591 273.676 198.804C276.913 199.425 277.378 202.101 277.921 204.506C278.367 206.446 276.157 206.776 275.11 206.834C271.078 207.067 266.892 207.513 263.267 205.108C261.639 204.022 260.96 204.487 260.476 206.155C259.565 209.239 258.673 212.342 256.928 215.096C256.618 215.581 256.327 216.066 255.979 216.512C254.719 218.045 253.362 220.469 251.482 219.868C249.524 219.247 249.563 216.26 248.652 214.34C248.283 213.564 249.059 212.944 249.485 212.362C251.579 209.569 253.11 206.582 252.548 202.935C252.315 201.364 252.974 200.608 254.505 200.123C257.297 199.231 260.068 198.242 262.724 197.02C265.128 195.895 267.357 195.662 269.644 197.097C269.915 197.039 270.148 197.097 270.342 197.311V197.291Z" fill="#FDCB08"/>
<path d="M116.63 208.366C116.63 208.366 116.786 208.483 116.786 208.541C116.747 210.577 117.832 213.778 116.32 214.398C113.413 215.601 110.292 217.191 106.803 216.415C103.547 215.698 100.93 213.855 98.5069 211.741C96.1615 209.704 94.0875 209.297 91.1993 211.198C86.3728 214.359 79.0652 210.926 77.6503 204.797C76.9331 201.714 75.5181 201.869 73.3665 202.741C71.622 203.459 69.9356 204.351 67.9585 204.157C64.2756 203.789 60.806 202.354 63.384 196.36C67.1832 199.25 71.3312 199.58 75.6731 197.834C76.8555 197.369 77.3207 197.776 77.8053 198.804C78.6582 200.589 79.5886 202.354 80.6353 204.041C83.097 207.939 85.52 208.735 89.7262 207.028C91.2962 206.388 92.8469 205.631 94.2038 204.642C95.6575 203.575 96.5879 203.828 97.8091 205.011C104.729 211.625 107.947 212.168 116.611 208.405L116.63 208.366Z" fill="#02A651"/>
<path d="M146.443 47.8486C158.616 30.7418 175.654 21.0634 195.696 15.4775C195.115 17.9408 193.545 19.376 191.897 20.7337C188.602 23.4491 184.958 25.7378 181.023 27.3282C167.513 32.7977 156.057 40.9244 147.005 52.4066C145.241 51.0877 146.365 49.4003 146.443 47.8486Z" fill="#E7E7E8"/>
<path d="M193.467 22.3633C191.102 27.0376 188.136 30.1021 184.686 32.7205C181.371 35.2613 177.727 37.259 174.064 39.2374C164.43 44.4354 155.359 50.2928 148.846 59.4281C148.226 60.3009 147.373 62.0853 146.132 61.2125C145.396 60.6888 145.919 58.885 146.384 57.5661C147.702 53.881 149.97 50.9135 152.665 48.2369C158.286 42.7286 164.314 37.7439 171.35 34.0976C178.503 30.3736 185.616 26.5333 193.447 22.3827L193.467 22.3633Z" fill="#FEFEFE"/>
<path d="M197.479 7.11836C212.366 6.43952 227.679 24.3028 228.299 43.0194C227.369 42.7091 227.097 41.8169 226.749 41.0993C222.853 32.9726 216.359 26.9987 209.962 20.9861C206.725 17.941 203.159 15.2451 200.213 11.909C198.991 10.532 197.615 9.19368 197.479 7.13775V7.11836Z" fill="#E7E7E8"/>
<path d="M72.4946 582.467C65.6523 581.846 58.4804 579.849 51.3279 577.734C44.1753 575.62 37.0422 573.448 30.4131 569.918C27.9901 568.619 25.6447 567.203 23.8227 565.089C23.2218 564.39 22.6984 563.556 22.3108 562.722C21.9812 561.966 21.6323 560.957 22.3301 560.317C23.2218 559.483 23.8614 560.569 24.4817 560.996C30.6069 565.127 36.9453 568.909 44.0397 571.101C52.394 573.681 60.7676 576.299 69.6647 576.319C71.4286 576.319 73.2118 576.765 74.9563 577.153C76.6233 577.521 78.0383 578.277 77.7282 580.392C77.4181 582.486 75.7317 582.312 74.2585 582.467C73.8903 582.506 73.5026 582.467 72.4946 582.467Z" fill="#00A651"/>
<path d="M251.365 655.743C252.218 655.743 253.071 655.743 253.905 655.743C259.254 655.607 260.127 656.383 261.29 662.435C262.007 666.178 260.495 668.622 256.405 670.212C252.567 671.686 248.535 672.094 244.484 672.249C243.651 672.288 242.623 672.423 243.011 670.988C244.097 666.818 243.186 662.726 242.527 658.633C242.216 656.752 242.662 656.073 244.581 656.073C246.849 656.073 249.098 655.898 251.365 655.782C251.365 655.782 251.365 655.763 251.365 655.743Z" fill="#D2AC67"/>
<path d="M134.987 670.114C130.374 667.457 125.974 664.936 121.554 662.434C120.701 661.949 120.411 661.348 120.391 660.397C120.314 656.964 120.662 653.667 121.864 650.409C122.465 648.779 123.144 648.624 124.5 649.245C128.203 650.894 132.079 652.115 135.975 653.202C137.991 653.764 138.689 654.928 138.573 656.906C138.301 661.503 136.518 665.654 134.968 670.134L134.987 670.114Z" fill="#E7BA8A"/>
<path d="M271.156 217.114C274.374 217.347 277.378 217.657 280.402 217.754C281.953 217.793 282.437 218.472 282.767 219.888C284.318 226.501 284.376 226.443 277.94 224.678C275.789 224.096 273.25 222.273 271.602 223.282C269.935 224.29 270.226 227.394 269.586 229.566C268.985 231.661 268.442 233.755 267.958 235.889C267.686 237.111 267.318 237.731 265.864 237.227C263.267 236.335 260.592 235.714 257.995 234.861C255.746 234.124 255.242 232.223 256.89 230.555C260.728 226.657 264.721 222.933 266.931 217.696C267.706 215.853 269.877 217.676 271.137 217.133L271.156 217.114Z" fill="#ED1C24"/>
<path d="M146.946 674.111C144.058 673.315 141.189 672.482 138.301 671.706C136.925 671.337 137.507 670.503 137.7 669.727C138.398 667.012 139.639 664.432 139.736 661.562C140.143 660.359 139.91 659.118 139.93 657.896C139.968 654.832 139.949 654.832 143.089 655.161C145.318 655.452 147.567 655.666 149.776 656.053C153.13 656.635 154.39 658.265 154.545 661.601C154.739 665.751 153.13 669.495 152.064 673.374C150.571 675.1 148.691 674.052 146.985 674.091L146.946 674.111Z" fill="#D2AC67"/>
<path d="M68.8308 524.513C69.1409 524.571 69.4511 524.649 69.7806 524.707C72.6493 526.433 75.9445 526.22 79.0653 526.802C80.7323 527.112 82.4186 527.325 84.0081 527.985C85.1517 528.47 85.4231 529.381 85.3262 530.525C85.2099 531.689 84.2988 531.767 83.4653 531.883C82.5543 532 81.6627 532.232 80.6741 532.077C64.5277 529.633 49.4085 524.61 35.8013 515.281C33.3202 513.574 31.5951 512.371 33.2621 509.152C33.9793 508.822 34.4832 509.578 35.0647 509.927C43.4772 515.009 52.0834 519.703 61.3875 522.981C63.7911 523.815 66.1946 524.726 68.8114 524.532L68.8308 524.513Z" fill="#00A651"/>
<path d="M171.951 658.691C173.851 663.423 171.661 667.787 170.75 672.248C170.556 673.257 169.722 673.237 168.986 673.315C164.586 673.819 160.166 674.265 155.766 674.828C154.37 675.002 154.022 674.614 154.429 673.334C154.719 672.442 154.991 671.53 155.282 670.638C156.483 667.011 157.375 663.365 156.212 659.525C155.747 658.012 156.348 657.624 157.743 658.148C161.465 658.671 165.206 658.225 168.928 658.4C169.935 658.439 170.982 658.109 171.951 658.691Z" fill="#E7BA8A"/>
<path d="M109.982 194.44C97.6736 193.296 85.7722 190.581 74.8011 184.626C72.5526 183.404 70.4592 181.911 69.238 179.506C68.7922 178.633 68.4239 177.683 69.238 176.868C70.1297 175.976 70.8275 177.023 71.3896 177.411C83.9501 186.333 98.3908 188.699 113.258 189.359C115.817 189.475 116.088 191.065 116.728 192.656C117.115 193.606 116.262 193.664 115.623 193.82C113.781 194.305 111.901 194.479 109.982 194.421V194.44Z" fill="#54C5D0"/>
<path d="M275.188 215.504C272.474 215.407 269.702 215.64 267.143 214.321C265.341 213.39 265.321 214.981 265.089 215.97C263.868 220.916 260.65 224.387 256.831 227.471C255.184 228.79 254.447 228.499 253.885 226.385C253.284 224.116 253.265 222.254 254.951 220.431C257.878 217.269 259.972 213.584 261.251 209.472C261.755 207.843 262.86 207.203 264.469 207.474C265.961 207.707 267.434 208.018 268.907 208.328C271.582 208.89 274.218 209.472 276.913 208.173C278.754 207.281 279.723 207.979 280.15 210.112C281.274 215.562 281.371 215.543 275.168 215.524L275.188 215.504Z" fill="#02A651"/>
<path d="M190.734 2.87051C191.587 3.02568 192.42 3.29721 192.905 4.05364C193.796 5.48891 194.3 6.76901 191.877 7.31208C189.222 7.91334 186.605 8.74735 183.988 9.52317C175.052 12.1416 166.64 15.7879 159.313 21.7035C157.879 22.8673 156.231 23.7595 154.448 24.9232C155.882 17.4753 171.505 5.21737 182.147 2.83172C185.016 2.56019 187.865 2.52139 190.734 2.83172V2.87051Z" fill="#E7E7E8"/>
<path d="M228.377 57.0814C227.369 55.8013 226.516 54.8509 225.818 53.7842C222.794 49.2262 218.918 45.5799 214.421 42.4766C211.397 40.3819 208.528 38.0544 205.543 35.8821C201.279 32.7595 198.739 28.3761 196.316 23.8375C195.483 22.2859 196.355 20.87 196.646 19.4735C196.84 18.5813 197.576 18.6977 198.022 19.5123C201.414 25.6219 206.919 29.7532 211.998 34.2141C218.103 39.5479 223.279 45.6187 227.64 52.4265C228.338 53.5126 228.577 55.0643 228.357 57.0814H228.377Z" fill="#E7E7E8"/>
<path d="M158.441 295.646C157.646 305.867 156.115 315.934 152.664 325.631C151.598 328.599 150.416 331.566 147.198 333.176C153.614 320.414 152.723 306.313 155.049 292.814C155.359 290.118 155.359 287.422 155.049 284.707C154.738 282.302 154.448 279.897 154.079 277.511C153.944 276.638 153.246 275.61 154.525 275.203C155.649 274.835 156.735 275.164 157.297 276.444C157.995 277.996 158.363 279.625 158.421 281.332C158.77 286.103 158.751 290.875 158.421 295.665L158.441 295.646Z" fill="#54C5D0"/>
<path d="M169.974 655.879C165.322 656.247 164.314 655.316 164.527 650.642C164.624 648.586 164.334 646.181 165.283 644.552C166.427 642.593 169.044 644.241 171.002 643.795C172.358 643.485 173.793 643.427 175.208 643.33C179.259 643.039 179.53 643.136 180.247 647.209C180.616 649.304 180.383 651.534 180.403 653.687C180.403 655.083 179.298 655.006 178.406 655.103C175.595 655.394 172.785 655.627 169.974 655.879Z" fill="#D2AC67"/>
<path d="M178.115 308.583C179.743 300.611 178.484 292.64 178.232 284.668C178.173 282.981 177.514 281.39 177.611 279.645C177.689 278.268 177.902 277.492 179.491 277.162C181.178 276.813 181.992 277.356 182.535 278.791C183.543 281.468 184.26 284.222 184.415 287.054C184.764 293.668 184.899 300.301 183.252 306.798C182.787 308.602 182.38 310.503 180.577 311.608C178.729 311.738 177.908 310.729 178.115 308.583Z" fill="#54C5D0"/>
<path d="M275.323 414.424C281.371 413.881 287.186 412.096 293.156 411.204C294.377 411.03 296.219 409.885 296.839 411.65C297.595 413.726 295.579 414.405 294.087 414.851C283.639 417.915 273.055 419.273 262.181 417.605C257.51 416.887 252.839 416.286 248.148 415.743C246.616 415.568 246.054 414.986 246.151 413.435C246.267 411.67 247.489 412.077 248.4 412.232C251.113 412.698 253.846 412.543 256.599 413.823C258.964 414.928 262.143 414.308 264.973 414.443C268.423 414.754 271.892 414.792 275.343 414.443L275.323 414.424Z" fill="#EE1C24"/>
<path d="M238.553 643.291C241.654 643.466 244.775 643.718 247.876 643.795C249.214 643.834 249.718 644.222 249.718 645.58C249.718 648.218 249.815 650.855 249.873 653.493C249.911 654.521 249.563 654.638 248.535 654.482C244.348 653.881 240.142 653.26 235.917 653.008C233.319 652.853 232.466 651.457 232.214 649.304C231.439 643.078 231.458 643.078 238.553 643.311V643.291Z" fill="#E7BA8A"/>
<path d="M252.044 648.605C251.915 645.282 253.504 643.381 256.812 642.903C259.526 642.515 262.259 642.263 264.934 641.758C266.659 641.429 267.493 642.088 267.589 643.698C267.706 645.773 267.938 647.887 267.667 649.924C267.318 652.542 264.779 652.833 262.879 653.182C259.836 653.745 256.677 653.725 253.575 653.997C252.47 654.094 252.005 653.667 252.044 652.581C252.083 651.262 252.044 649.924 252.044 648.605Z" fill="#D2AC67"/>
<path d="M227.95 49.6336C226.496 47.8298 224.985 46.0649 223.608 44.2029C219.266 38.3067 214.382 32.9535 208.567 28.4731C204.961 25.6802 201.976 22.2472 199.243 18.6008C197.983 16.9328 197.867 15.2648 198.158 13.0537C207.171 21.7429 217.793 28.3956 224.015 39.4122C225.818 42.5931 227.834 45.6576 227.95 49.653V49.6336Z" fill="#FEFEFE"/>
<path d="M148.633 646.123C148.245 643.466 149.331 642.768 151.928 643.214C154.991 643.737 158.131 643.854 161.232 644.164C162.337 644.261 162.764 644.494 162.434 645.91C161.775 648.819 162.899 651.69 163.326 654.56C163.558 656.151 163.151 656.597 161.581 656.306C157.317 655.511 153.014 654.812 148.749 654.095C148.168 651.437 148.4 648.78 148.633 646.123Z" fill="#E6BA8A"/>
<path d="M187.342 33.4774C186.121 36.6195 184.202 38.4233 182.263 40.1495C177.379 44.5134 171.971 48.1598 166.136 51.0885C159.333 54.5021 153.343 58.7303 149.66 65.6351C149.311 66.2946 148.827 67.5747 147.877 67.0122C146.985 66.4692 147.955 65.5576 148.226 64.8011C150.804 57.9351 155.747 53.0475 161.678 49.1684C169.257 44.2225 177.049 39.6064 184.764 34.8545C185.403 34.4666 186.082 34.1369 187.342 33.458V33.4774Z" fill="#E7E7E8"/>
<path d="M244.756 197.68C244.271 195.721 245.124 195.119 247.024 194.79C254.292 193.51 260.67 189.921 267.144 186.585C267.725 186.275 268.307 185.887 268.927 185.732C269.896 185.499 271.02 183.948 271.815 185.363C272.59 186.76 273.327 188.583 271.621 190.038C270.904 190.639 270.129 191.201 269.295 191.648C262.453 195.352 255.262 198.126 247.76 200.201C245.163 200.919 244.194 200.337 244.756 197.66V197.68Z" fill="#54C5D0"/>
<path d="M183.329 132.53C187.303 134.528 191.431 135.827 195.987 133.965C197.712 133.267 197.402 134.955 197.421 135.866C197.615 141.297 193.176 146.728 187.206 148.24C185.888 148.57 184.221 149.54 183.193 148.531C182.457 147.794 183.659 146.34 183.93 145.176C184.783 141.433 185.19 137.728 183.31 134.14C183.077 133.694 182.573 133.19 183.329 132.511V132.53Z" fill="#EC1C24"/>
<path d="M278.619 649.536C278.948 652.426 277.902 654.734 276.584 656.906C273.792 661.503 269.741 664.606 264.837 666.701C263.151 667.438 262.724 666.934 262.802 665.227C262.957 662.298 262.957 659.369 261.426 656.693C260.98 655.898 261.174 655.471 262.085 655.355C265.012 655.006 267.783 654.113 270.497 653.008C273.172 651.922 275.828 650.739 278.619 649.517V649.536Z" fill="#E7BA8A"/>
<path d="M190.075 653.551C187.962 662.705 181.507 667.322 174.18 671.143C174.18 667.865 174.18 664.742 174.18 661.619C174.161 657.857 174.142 657.857 177.96 657.585C180.383 657.411 182.496 656.344 184.648 655.374C186.256 654.637 187.826 653.745 190.075 653.57V653.551Z" fill="#D2AC67"/>
<path d="M152.296 268.317C149.428 268.531 146.036 268.822 142.643 269.035C141.442 269.113 140.511 269.714 139.523 270.257C135.278 272.546 131.091 274.97 126.284 275.92C125.528 276.076 124.733 276.153 124.21 275.435C123.628 274.601 124.326 274.039 124.791 273.477C130.916 266.087 144.621 262.324 153.615 265.524C154.06 265.68 154.545 265.796 154.933 266.048C155.727 266.572 157.375 266.533 157.045 267.852C156.793 268.86 155.398 268.162 154.526 268.298C153.963 268.376 153.401 268.298 152.316 268.298L152.296 268.317Z" fill="#FCD09E"/>
<path d="M219.557 665.402C217.561 664.413 216.068 662.803 214.401 661.465C212.482 659.933 210.582 658.303 208.101 657.838C206.376 657.527 206.144 656.558 206.124 655.084C206.008 647.946 206.396 647.616 212.85 649.886C215.157 650.7 217.793 651.049 219.673 652.446C222.154 654.269 218.917 656.674 219.441 659.021C219.887 660.98 219.538 663.113 219.538 665.383L219.557 665.402Z" fill="#D1AB67"/>
<path d="M146.908 646.181C146.888 653.144 146.036 653.842 139.658 652.484C132.467 650.952 130.955 647.713 134.541 641.37C135.123 640.342 136.15 640.11 137.235 640.342C139.426 640.847 141.616 641.351 143.787 641.952C146.055 642.573 147.489 643.834 146.908 646.161V646.181Z" fill="#D2AC67"/>
<path d="M244.562 641.1C243.69 638.947 242.837 636.794 241.926 634.66C241.383 633.419 241.926 633.051 243.069 632.857C244.542 632.605 245.977 632.178 247.411 631.829C250.261 631.577 253.129 631.538 255.979 631.867C258.712 633.982 259.545 638.287 257.781 641.177C253.381 641.352 248.962 641.507 244.562 641.08V641.1Z" fill="#E7BA8A"/>
<path d="M161.484 642.205C159.391 642.593 158.635 641.196 157.898 639.664C155.882 635.474 157.11 633.005 161.581 632.255C167.415 631.266 169.431 632.72 170.478 638.248C170.827 640.149 170.187 640.905 168.482 641.157C166.156 641.506 163.81 641.836 161.484 642.185V642.205Z" fill="#D1AB67"/>
<path d="M229.947 647.675C229.947 651.845 229.947 651.883 225.876 651.243C223.821 650.933 221.786 650.545 219.751 650.138C217.153 649.614 215.932 647.597 216.32 644.591C216.669 641.837 218.065 640.731 220.991 640.983C223.821 641.235 226.361 642.767 229.229 642.942C229.966 642.981 229.947 643.718 229.947 644.28C229.966 645.405 229.947 646.55 229.947 647.694V647.675Z" fill="#D1AC67"/>
<path d="M208.334 322.451C208.334 326.776 207.636 327.901 205.213 327.998C201.491 328.172 201.472 328.153 201.647 324.545C201.763 322.315 200.949 320.492 199.437 318.96C198.584 318.087 197.673 317.272 196.82 316.38C196.239 315.779 195.541 315.158 196.161 314.188C196.704 313.335 197.498 313.335 198.409 313.548C200.735 314.072 202.887 314.925 204.884 316.244C207.248 317.796 208.818 319.774 208.334 322.47V322.451Z" fill="#02A651"/>
<path d="M237.254 641.855C233.203 641.274 228.648 640.614 224.093 639.955C223.608 639.877 223.104 639.761 223.046 639.198C222.969 638.461 223.589 638.325 224.132 638.151C228.512 636.754 232.893 635.3 237.293 633.961C239.328 633.341 240.104 635.125 240.995 636.328C242.042 637.763 242.352 639.703 241.499 641.138C240.86 642.205 239.038 641.506 237.235 641.836L237.254 641.855Z" fill="#D1AC67"/>
<path d="M199.263 61.8527C199.941 58.4197 201.666 56.8875 203.76 55.7431C208.954 52.9114 214.634 52.2519 220.429 52.3877C221.108 52.3877 221.883 52.5041 222.019 53.2411C222.096 53.7066 221.728 54.3079 221.418 54.7346C220.798 55.6268 219.867 56.1892 218.84 56.325C212.288 57.1202 205.911 58.6525 199.282 61.8333L199.263 61.8527Z" fill="#E6E6E7"/>
<path d="M185.985 312.015C188.324 311.964 189.209 313.082 188.64 315.371C188.194 317.194 187.69 319.017 187.361 320.879C187.109 322.237 186.624 322.353 185.5 321.733C183.116 320.394 180.693 319.172 178.289 317.873C176.022 316.651 175.925 315.332 178.115 313.839C180.48 312.248 183.252 312.132 185.985 312.035V312.015Z" fill="#E1F3FC"/>
<path d="M269.644 642.709C269.412 641.662 269.198 640.634 270.73 640.343C271.369 640.226 271.97 639.897 272.59 639.664C276.235 638.326 279.956 641.332 279.549 645.25C279.433 646.239 278.677 646.685 277.96 647.112C275.847 648.372 273.637 649.4 271.292 650.196C269.644 650.758 269.935 649.517 269.857 648.644C269.722 646.685 270.109 644.687 269.625 642.728L269.644 642.709Z" fill="#E7BA8A"/>
<path d="M105.892 649.595C110.467 648.994 114.363 648.489 118.278 647.946C119.693 647.752 119.848 648.451 119.654 649.576C119.073 652.718 118.53 655.86 117.871 659.525C113.897 656.228 110.195 653.144 105.911 649.595H105.892Z" fill="#D1AB66"/>
<path d="M177.049 59.2732C171.874 58.6137 166.698 57.9543 161.329 57.2754C161.678 55.685 162.841 55.1419 164.004 54.6183C166.853 54.211 169.703 54.2497 172.533 54.6183C175.169 55.1419 177.883 54.8704 180.48 55.9566C182.011 56.616 182.845 57.4888 183.155 59.021C181.139 59.8938 179.084 59.4671 177.03 59.2732H177.049Z" fill="#E7E7E8"/>
<path d="M182.244 647.829C181.934 646.84 181.565 645.87 181.294 644.881C181.023 643.931 180.325 642.864 181.255 641.991C182.089 641.215 183.31 641.371 184.202 641.7C186.644 642.593 188.66 644.28 189.842 646.549C190.695 648.178 190.482 650.06 188.582 651.204C187.128 652.077 185.578 652.736 183.911 653.124C182.651 653.493 182.496 652.756 182.438 651.767C182.38 650.448 182.69 649.129 182.224 647.829H182.244Z" fill="#E7BA8A"/>
<path d="M152.199 301.503C151.851 305.227 151.424 308.971 151.172 312.714C151.036 314.828 150.184 314.537 148.904 313.664C147.179 312.462 146.21 310.949 146.249 308.699C146.326 305.538 146.443 302.454 148.943 300.087C149.815 299.273 150.804 297.993 151.986 298.575C152.878 299.021 151.986 300.475 152.18 301.484L152.199 301.503Z" fill="#F38120"/>
<path d="M214.808 328.637C209.73 328.599 209.71 328.579 210.098 323.614C210.156 322.761 210.311 321.927 210.389 321.073C210.68 318.125 211.668 317.64 214.207 319.366C217.037 321.286 217.755 324.37 218.472 327.435C218.685 328.327 218.162 328.618 217.367 328.618C216.514 328.618 215.661 328.618 214.808 328.618V328.637Z" fill="#ED1C24"/>
<path d="M259.506 631.809C264.255 633.224 268.52 634.505 272.842 635.804C271.059 638.325 264.352 640.731 261.677 639.993C261.018 639.819 260.708 639.45 260.727 638.83C260.766 636.58 260.379 634.408 259.506 631.809Z" fill="#D0AB66"/>
<path d="M136.363 275.63C137.836 271.169 147.993 270.277 157.801 270.994C151.172 274.66 143.962 275.707 136.363 275.63Z" fill="#F9CE9C"/>
<path d="M141.035 639.159C144.485 637.705 147.954 636.269 151.385 634.776C152.219 634.408 152.8 634.388 153.227 635.261C153.304 635.435 153.44 635.571 153.537 635.726C154.545 637.608 157.317 639.722 156.522 641.099C155.553 642.786 152.626 641.157 150.552 640.983C147.392 640.711 144.252 640.149 141.112 639.722C141.073 639.528 141.054 639.334 141.015 639.14L141.035 639.159Z" fill="#E5B989"/>
<path d="M204.806 652.038C204.748 655.685 204.806 655.568 201.705 654.327C199.282 653.338 196.762 652.504 194.223 651.922C192.071 651.418 192.207 649.944 192.401 648.489C192.691 646.336 194.203 647.829 194.998 647.926C196.878 648.14 198.914 648.043 200.484 649.556C200.891 649.943 201.84 650.157 202.344 649.944C205.174 648.78 205.019 650.506 204.826 652.038H204.806Z" fill="#E4B888"/>
<path d="M170.246 632.469C175.111 633.361 178.677 635.65 181.818 639.509C180.209 639.858 178.968 640.188 177.728 640.401C176.061 640.692 174.142 641.526 172.765 641.003C171.118 640.382 172.475 638.113 171.913 636.658C171.409 635.378 170.905 634.098 170.246 632.449V632.469Z" fill="#E5B889"/>
<path d="M206.124 39.1013C201.899 37.86 198.274 35.7265 195.366 32.565C193.525 30.5672 192.653 28.3174 194.824 25.5244C198.448 30.2181 201.143 35.6489 206.124 39.1207V39.1013Z" fill="#FAFAFA"/>
<path d="M250.881 203.575C251.074 206.077 249.912 207.958 249.214 209.995C248.729 211.391 247.857 211.023 247.004 210.538C244.93 209.336 244.368 207.435 244.794 205.224C245.124 203.498 248.283 201.422 250.067 201.616C251.753 201.791 250.377 203.187 250.881 203.575Z" fill="#F28120"/>
<path d="M195.425 317.873C198.933 319.153 200.639 323.634 198.739 326.543C197.673 328.153 196.336 326.873 195.192 326.717C193.796 326.523 193.06 325.495 193.486 324.041C194.087 321.985 194.766 319.948 195.425 317.892V317.873Z" fill="#F28020"/>
<path d="M193.622 315.488C193.951 318.262 192.149 320.822 191.664 323.692C191.49 324.701 190.54 324.526 189.803 324.468C188.602 324.371 188.873 323.498 189.047 322.781C189.765 319.852 190.501 316.943 191.257 314.014C191.47 313.161 191.432 311.88 192.769 312.074C194.223 312.268 193.409 313.568 193.603 314.363C193.661 314.635 193.603 314.926 193.603 315.469L193.622 315.488Z" fill="#53C2CD"/>
<path d="M131.517 642.418C131.672 644.765 130.974 646.763 130.626 648.799C130.529 649.362 130.238 649.614 129.656 649.4C129.385 649.303 129.133 649.206 128.862 649.109C127.214 648.508 124.714 648.392 124.5 646.569C124.287 644.668 126.943 644.842 128.241 643.95C129.152 643.33 130.257 642.98 131.498 642.418H131.517Z" fill="#E2B687"/>
<path d="M147.683 326.446C146.481 329.065 145.357 331.509 144.252 333.952C143.671 335.232 142.508 334.98 141.538 334.825C140.104 334.573 140.666 333.312 140.783 332.517C141.131 329.821 144.33 326.989 147.683 326.466V326.446Z" fill="#F28120"/>
<path d="M71.8355 188.738C68.4628 188.699 66.2531 186.973 66.6795 184.646C66.9315 183.288 67.4161 182.26 69.0637 183.463C70.2848 184.335 71.6417 184.975 72.8628 185.868C73.6188 186.411 75.1307 186.702 74.6461 187.982C74.2197 189.087 72.8628 188.699 71.8549 188.758L71.8355 188.738Z" fill="#EF7F20"/>
<path d="M89.0092 197.175C86.7026 197.253 84.9387 194.576 85.6171 192.52C85.9079 191.667 86.3924 191.938 86.9158 192.055C88.0982 192.326 89.3387 192.501 90.463 192.966C91.4128 193.374 93.2348 192.908 93.1961 194.246C93.1573 195.488 91.7229 196.341 90.4436 196.807C89.9202 197.001 89.3581 197.097 89.0092 197.194V197.175Z" fill="#EF7F20"/>
<path d="M270.342 197.292C270.109 197.214 269.877 197.156 269.644 197.078C268.016 195.449 269.082 194.246 270.361 193.218C271.408 192.384 272.532 190.91 273.986 192.094C275.285 193.141 275.362 194.906 275.227 196.535C275.168 197.427 274.335 197.388 273.715 197.388C272.59 197.388 271.466 197.33 270.342 197.292Z" fill="#F18020"/>
<path d="M295.676 384.691C292.962 384.807 292.924 383.314 292.865 381.685C292.807 380.133 293.447 379.609 294.862 379.823C296.742 380.114 299.495 379.997 299.611 382.267C299.708 384.536 296.762 383.973 295.695 384.691H295.676Z" fill="#EE1C24"/>
<path d="M150.571 275.843C151.463 275.688 151.928 275.979 152.103 276.774C152.277 277.608 152.607 278.403 152.684 279.237C152.762 280.265 154.06 281.642 152.781 282.243C151.637 282.787 150.242 281.875 149.292 280.886C148.207 279.741 147.509 278.267 147.916 276.793C148.207 275.765 149.777 276.27 150.571 275.824V275.843Z" fill="#EF7F20"/>
<path d="M113.452 196.71C111.533 200.434 109.633 201.306 107.075 200.046C105.543 199.289 105.427 198.029 105.776 196.748C106.163 195.41 107.385 196.07 108.16 196.283C109.866 196.729 111.649 196.458 113.452 196.71Z" fill="#EE7F20"/>
<path d="M214.692 645.929C214.265 646.588 215.428 648.101 213.8 648.004C212.734 647.927 210.951 647.927 210.834 646.588C210.699 645.075 212.094 644.125 213.587 643.951C215.312 643.737 214.343 645.211 214.692 645.929Z" fill="#DDB284"/>
<path d="M234.327 201.287C233.319 199.134 233.901 196.846 233.862 194.615C233.785 191.124 233.881 187.633 233.92 184.161C234.928 187.284 234.289 190.503 234.385 193.665C234.463 196.206 234.366 198.747 234.347 201.287H234.327Z" fill="#951D22"/>
<path d="M291.799 278.636C291.799 274.602 291.799 270.548 291.799 266.514C292.575 270.548 292.652 274.602 291.799 278.636Z" fill="#9EA8AE"/>
<path d="M221.786 656.926C221.786 659.408 221.825 661.891 221.844 664.374C220.991 661.891 221.05 659.408 221.786 656.926Z" fill="#6D5A48"/>
<path d="M146.443 47.8486C146.714 49.3615 145.803 51.0101 147.005 52.4066C146.675 52.8915 146.074 53.0078 146.016 52.4066C145.88 50.8743 145.338 49.2645 146.443 47.8486Z" fill="#6D6B6C"/>
<path d="M68.0557 196.264C69.994 196.264 71.9324 196.264 73.8707 196.264C71.9324 197.001 69.994 197.001 68.0557 196.264Z" fill="#938C53"/>
<path d="M109.091 479.632C108.548 466.947 105.699 454.612 103.663 442.16C102.636 435.856 101.647 429.534 101.628 423.094C101.628 419.642 101.221 416.17 101.008 412.718C100.543 405.095 103.644 398.113 104.303 390.723C104.419 389.365 105.272 389.889 105.931 390.103C107.559 390.607 109.207 391.053 110.758 391.712C116.34 394.098 122.252 394.04 128.145 394.389C133.863 394.719 139.562 395.242 145.26 395.688C150.009 395.979 154.778 396.038 159.527 395.669C168.869 394.893 177.495 391.693 186.063 387.445C190.676 408.431 193.079 429.456 194.204 450.636C194.494 458.627 194.494 466.637 194.204 474.628C193.952 479.341 193.486 484.054 193.506 488.767C193.506 491.716 192.149 493.054 189.629 493.81C184.822 495.265 179.84 495.769 174.898 496.467C165.535 497.806 156.057 497.844 146.714 497.107C135.665 496.235 124.753 493.868 113.937 491.231C111.436 490.629 109.808 489.757 109.44 487.119C108.955 484.636 109.614 482.095 109.071 479.613L109.091 479.632Z" fill="#211D1F"/>
<path d="M180.945 374.644C180.945 371.774 182.922 369.563 185.52 369.582C188.001 369.582 190.133 371.987 190.075 374.722C190.017 377.476 187.826 379.707 185.287 379.629C182.826 379.551 180.965 377.418 180.945 374.644Z" fill="#FFF200"/>
<path d="M278.541 522.787C278.599 525.464 276.428 527.869 273.928 527.927C271.427 527.966 269.237 525.599 269.237 522.884C269.237 520.324 271.33 517.977 273.695 517.88C276.176 517.783 278.483 520.091 278.541 522.787Z" fill="#FFF200"/>
<path d="M232.66 452.459C232.718 449.666 234.889 447.416 237.409 447.533C239.929 447.649 241.887 450.035 241.771 452.828C241.654 455.562 239.697 457.56 237.157 457.521C234.521 457.483 232.583 455.31 232.641 452.44L232.66 452.459Z" fill="#FFF200"/>
<path d="M209.885 401.778C207.384 401.856 205.155 399.548 205.116 396.813C205.077 394.272 207.132 391.886 209.516 391.751C212.017 391.596 214.323 393.865 214.42 396.58C214.517 399.296 212.424 401.681 209.885 401.778Z" fill="#FFF200"/>
<path d="M197.441 347.8C197.441 344.949 199.515 342.757 202.093 342.835C204.457 342.913 206.512 345.201 206.551 347.8C206.59 350.535 204.438 352.901 201.938 352.882C199.321 352.882 197.421 350.71 197.441 347.781V347.8Z" fill="#FFF200"/>
<path d="M215.641 559.231C213.044 559.211 211.048 556.981 211.106 554.13C211.164 551.473 213.18 549.262 215.603 549.223C218.123 549.165 220.235 551.453 220.255 554.246C220.255 557.136 218.297 559.25 215.641 559.231Z" fill="#FFF200"/>
<path d="M262.317 363.861C262.317 361.281 264.701 358.798 267.105 358.856C269.528 358.934 271.738 361.455 271.66 364.093C271.583 366.673 269.45 368.865 267.008 368.884C264.469 368.884 262.298 366.576 262.298 363.861H262.317Z" fill="#FFF200"/>
<path d="M95.1924 373.441C97.751 373.364 99.8444 375.594 99.8832 378.407C99.922 381.141 97.8092 383.469 95.2699 383.488C92.9633 383.488 90.8311 381.199 90.7923 378.6C90.7342 375.691 92.595 373.499 95.2118 373.422L95.1924 373.441Z" fill="#FFF200"/>
<path d="M208.896 501.878C211.513 501.917 213.451 504.109 213.412 506.979C213.374 509.714 211.164 511.983 208.625 511.906C206.318 511.828 204.283 509.462 204.283 506.843C204.283 503.953 206.221 501.859 208.915 501.878H208.896Z" fill="#FFF200"/>
<path d="M212.773 465.978C215.409 465.958 217.406 468.092 217.386 470.943C217.386 473.813 215.409 475.85 212.715 475.811C210.156 475.772 208.295 473.794 208.257 471.04C208.198 468.169 210.137 466.016 212.773 465.978Z" fill="#FFF200"/>
<path d="M162.395 349.43C162.357 352.242 160.244 354.511 157.743 354.434C155.34 354.376 153.304 352.106 153.266 349.507C153.227 346.676 155.243 344.445 157.821 344.426C160.476 344.426 162.434 346.54 162.395 349.43Z" fill="#FFF200"/>
<path d="M245.667 503.022C245.667 500.326 247.857 497.921 250.28 497.98C252.645 498.018 254.738 500.288 254.796 502.887C254.854 505.602 252.78 507.968 250.241 508.046C247.682 508.123 245.667 505.912 245.667 503.042V503.022Z" fill="#FFF200"/>
<path d="M176.08 555.74C176.08 558.63 174.103 560.88 171.564 560.802C169.024 560.744 166.892 558.358 166.97 555.662C167.047 553.063 169.083 550.833 171.506 550.755C174.084 550.658 176.099 552.83 176.099 555.74H176.08Z" fill="#FFF200"/>
<path d="M232.699 524.047C235.297 524.066 237.274 526.277 237.235 529.129C237.196 531.747 235.161 533.977 232.738 534.036C230.218 534.094 228.105 531.805 228.086 529.012C228.086 526.122 230.024 524.028 232.68 524.047H232.699Z" fill="#FFF200"/>
<path d="M187.788 533.512C187.826 530.719 189.687 528.663 192.188 528.605C194.843 528.566 197.034 530.971 196.917 533.822C196.82 536.421 194.669 538.671 192.323 538.652C189.881 538.632 187.749 536.227 187.788 533.512Z" fill="#FFF200"/>
<path d="M148.71 534.463C148.633 537.314 146.559 539.448 143.981 539.351C141.383 539.254 139.484 537.023 139.581 534.153C139.678 531.515 141.752 529.343 144.155 529.343C146.675 529.343 148.788 531.728 148.71 534.463Z" fill="#FFF200"/>
<path d="M102.035 532.484C104.69 532.407 106.726 534.521 106.745 537.353C106.745 540.107 104.962 542.182 102.442 542.299C99.7282 542.434 97.7123 540.475 97.6154 537.605C97.5184 534.734 99.418 532.562 102.054 532.484H102.035Z" fill="#FFF200"/>
<path d="M286.062 550.387C286.062 547.516 288.02 545.48 290.714 545.499C293.369 545.519 295.23 547.633 295.153 550.561C295.095 553.335 293.234 555.294 290.656 555.294C287.961 555.294 286.042 553.238 286.042 550.367L286.062 550.387Z" fill="#FFF200"/>
<path d="M124.985 511.033C124.985 513.923 123.027 516.056 120.391 516.037C117.891 516.018 115.797 513.651 115.836 510.917C115.875 508.337 117.949 506.087 120.352 505.99C122.756 505.893 124.966 508.318 124.966 511.033H124.985Z" fill="#FFF200"/>
<path d="M221.263 370.066C221.263 367.196 223.22 365.004 225.818 365.004C228.28 365.004 230.431 367.428 230.392 370.124C230.354 372.723 228.28 374.993 225.895 375.031C223.298 375.09 221.282 372.917 221.263 370.066Z" fill="#FFF200"/>
<path d="M100.581 455.678C100.581 458.626 98.7011 460.566 95.9293 460.527C93.3706 460.469 91.471 458.432 91.4517 455.756C91.4517 452.904 93.4094 450.713 96.0068 450.693C98.6429 450.693 100.581 452.788 100.581 455.678Z" fill="#FFF200"/>
<path d="M93.8161 424.645C91.1218 424.645 89.1641 422.551 89.1641 419.641C89.1641 416.926 91.083 414.87 93.6804 414.831C96.3941 414.773 98.3131 416.868 98.2743 419.816C98.2355 422.628 96.3747 424.645 93.7967 424.665L93.8161 424.645Z" fill="#FFF200"/>
<path d="M256.987 555.313C254.331 555.274 252.432 553.141 252.509 550.251C252.587 547.497 254.447 545.518 257.006 545.499C259.681 545.499 261.658 547.574 261.658 550.406C261.658 553.257 259.662 555.352 257.006 555.294L256.987 555.313Z" fill="#FFF200"/>
<path d="M292.885 502.887C292.943 505.796 291.063 507.968 288.446 508.046C285.965 508.104 283.794 505.757 283.774 503.042C283.774 500.307 285.945 497.941 288.407 497.999C290.752 498.038 292.827 500.327 292.885 502.906V502.887Z" fill="#FFF200"/>
<path d="M216.708 435.604C216.785 438.378 214.75 440.589 212.114 440.627C209.497 440.666 207.52 438.746 207.403 436.031C207.268 433.18 209.439 430.794 212.133 430.794C214.498 430.794 216.649 433.063 216.708 435.604Z" fill="#FFF200"/>
<path d="M137.158 370.493C139.794 370.474 141.771 372.433 141.849 375.129C141.926 378.038 140.027 380.249 137.39 380.307C134.696 380.366 132.719 378.271 132.738 375.342C132.738 372.51 134.58 370.513 137.158 370.493Z" fill="#FFF200"/>
<path d="M238.824 343.999C238.824 341.07 240.724 339.111 243.496 339.169C246.035 339.227 247.915 341.245 247.954 343.979C248.012 346.772 245.977 349.003 243.379 349.003C240.724 349.003 238.824 346.908 238.824 343.999Z" fill="#FFF200"/>
<path d="M240.181 415.219C240.142 418.167 238.223 420.165 235.529 420.068C233.009 419.971 231.09 417.876 231.071 415.2C231.032 412.407 233.048 410.234 235.704 410.234C238.437 410.234 240.22 412.213 240.181 415.219Z" fill="#FFF200"/>
<path d="M113.781 347.18C116.34 347.238 118.162 349.294 118.123 352.106C118.104 354.996 116.069 357.072 113.374 356.975C110.758 356.878 108.858 354.608 108.994 351.719C109.11 349.023 111.126 347.102 113.762 347.18H113.781Z" fill="#FFF200"/>
<path d="M131.847 558.59C131.789 561.403 129.986 563.323 127.389 563.323C124.714 563.323 122.698 561.209 122.698 558.396C122.698 555.603 124.772 553.47 127.427 553.489C130.083 553.528 131.905 555.603 131.847 558.571V558.59Z" fill="#FFF200"/>
<path d="M98.449 485.858C101.008 485.897 102.849 487.953 102.849 490.745C102.849 493.713 100.93 495.749 98.2164 495.653C95.6383 495.575 93.7388 493.519 93.7388 490.784C93.7388 487.972 95.7934 485.8 98.4683 485.838L98.449 485.858Z" fill="#FFF200"/>
<path d="M169.238 508.298C169.238 511.285 167.377 513.341 164.663 513.283C162.124 513.244 160.147 511.15 160.108 508.454C160.069 505.661 162.143 503.449 164.799 503.469C167.416 503.469 169.238 505.467 169.238 508.298Z" fill="#FFF200"/>
<path d="M173.134 63.7149C176.002 64.5295 178.173 66.2751 179.743 68.7577C182.108 72.4622 181.662 74.0721 177.65 76.8262C177.34 77.059 177.049 77.059 176.758 76.8068C176.39 75.6819 175.75 76.4383 175.227 76.5935C169.935 78.0675 164.799 78.2033 160.166 74.6927C158.906 73.7423 157.762 73.9945 156.057 74.7703C158.402 72.501 156.115 72.2683 154.661 71.2597C156.638 71.3373 157.336 70.6003 157.898 69.2426C159.119 66.3139 161.31 64.3161 164.547 63.6955C167.396 63.3657 170.265 63.327 173.114 63.7343L173.134 63.7149Z" fill="#242021"/>
<path d="M204.38 76.5152C198.681 73.0046 198.352 70.2116 203.062 65.3434C208.509 59.6993 218.51 60.9018 222.019 67.7484C222.717 69.1061 223.705 69.2807 225.469 69.4358C222.93 70.231 222.503 72.5003 220.197 73.0822C218.026 73.6447 216.126 75.7394 213.626 76.0109C211.106 76.2824 208.547 76.4958 206.066 75.6618C205.097 75.1187 204.399 75.1381 204.399 76.5152H204.38Z" fill="#242021"/>
<path d="M194.746 105.726C196.413 105.958 198.08 106.191 199.747 106.424C199.611 107.646 198.662 107.161 198.022 107.2C195.774 107.355 193.486 106.986 191.257 107.413C187.691 107.743 184.066 107.297 180.557 108.131C178.348 108.654 175.75 108.809 175.149 111.913C173.25 110.419 171.854 108.771 172.281 105.299C173.773 109.236 175.944 108.441 178.367 107.335C180.596 106.327 183.019 105.784 185.5 105.687C188.582 105.435 191.684 105.376 194.766 105.726H194.746Z" fill="#221E1F"/>
<path d="M183.271 112.591C188.194 113.503 192.75 113.639 197.46 112.514C194.184 117.11 185.927 117.227 183.271 112.591Z" fill="#2B2625"/>
<path d="M191.257 107.413C193.021 106.501 194.94 107.122 196.782 106.889C197.77 106.753 198.856 107.238 199.747 106.423C202.112 106.094 204.302 108.654 206.919 106.617C206.9 108.77 206.706 110.613 205.039 112.223C204.244 107.432 204.225 107.413 199.437 107.374C196.704 107.374 193.99 107.374 191.257 107.393V107.413Z" fill="#221E1F"/>
<path d="M204.38 76.5154C204.205 76.0305 203.856 75.1383 203.895 75.1189C204.709 74.731 205.407 75.1189 206.027 75.662C204.884 75.7978 204.981 76.1857 205.833 76.6706C209.342 78.7265 213.063 79.1532 216.979 78.1252C217.56 77.9701 218.064 77.3106 218.782 77.7373C215.138 80.8794 209.691 80.3945 204.36 76.496L204.38 76.5154Z" fill="#221E1F"/>
<path d="M176.758 76.8065C177.049 76.8065 177.359 76.8065 177.65 76.8259C172.203 81.2675 165.806 82.3342 161.62 79.3279C167.163 81.3063 172.125 79.9098 176.758 76.7871V76.8065Z" fill="#221E1F"/>
<path d="M194.746 105.725C191.664 105.725 188.563 105.706 185.481 105.686C188.563 104.891 191.664 104.969 194.746 105.725Z" fill="#221E1F"/>
<path d="M291.315 441.539C288.815 441.48 286.605 438.978 286.721 436.36C286.837 433.645 289.164 431.337 291.645 431.492C294.009 431.628 296.103 434.013 296.083 436.535C296.083 439.231 293.796 441.597 291.296 441.539H291.315Z" fill="#FFF200"/>
<path d="M277.068 465.997C279.685 466.075 281.604 468.305 281.488 471.137C281.391 473.988 279.355 475.947 276.622 475.811C274.102 475.695 272.319 473.62 272.339 470.846C272.358 468.014 274.393 465.92 277.049 465.997H277.068Z" fill="#FFF200"/>
<path d="M252.509 444.177C252.509 441.287 254.525 439.192 257.219 439.27C259.778 439.347 261.658 441.423 261.658 444.177C261.658 447.047 259.623 449.161 256.948 449.084C254.389 449.006 252.509 446.931 252.529 444.177H252.509Z" fill="#FFF200"/>
<path d="M191.529 477.712C190.482 480.349 190.637 482.813 191.664 485.547C193.157 489.543 192.324 490.881 188.156 492.278C181.643 494.45 174.84 494.799 168.036 495.148C162.512 495.42 157.007 495.4 151.482 495.148C139.29 494.683 127.331 492.782 115.487 489.892C112.444 489.136 111.223 487.855 111.126 484.364C110.68 467.82 108.49 451.469 104.749 435.332C104.148 432.772 104.09 430.096 103.722 427.477C103.47 425.596 104.284 425.363 105.815 425.964C107.831 426.76 109.885 427.477 111.901 428.292C115.158 429.611 118.492 430.619 122 430.91C124.656 431.531 127.389 430.755 130.044 431.337C131.711 431.395 133.378 431.453 135.045 431.492C142.062 431.841 149.079 431.861 156.096 431.492C166.272 431.298 176.08 428.68 186.063 427.186C186.896 427.051 187.749 427.012 188.583 426.857C189.862 426.643 190.133 427.186 190.191 428.389C190.482 434.304 190.676 440.239 191.296 446.116C191.82 451.043 192.188 455.989 192.459 460.934C192.769 464.561 192.769 468.169 192.459 471.796C192.362 472.591 192.265 473.386 192.188 474.201C191.122 473.968 190.87 472.94 190.269 472.242C188.718 470.438 186.974 470.07 185.326 471.234C183.64 472.417 182.981 474.899 183.892 476.8C184.725 478.584 186.644 479.36 188.66 478.74C189.629 478.449 190.385 477.518 191.529 477.77V477.712Z" fill="#EE1C24"/>
<path d="M103.799 404.086C104.342 401.119 104.923 398.171 105.447 395.203C105.834 393.012 107.288 392.333 109.168 392.973C112.347 394.078 115.739 394.117 118.86 395.766C120.701 396.735 123.279 396.406 125.528 396.58C131.924 397.065 138.302 397.492 144.698 397.938C148.323 398.287 151.948 398.268 155.572 397.938C164.683 396.619 173.987 396.037 182.419 391.77C184.008 390.956 184.725 391.305 184.997 393.167C186.024 400.071 187.187 406.976 188.272 413.881C188.602 415.956 188.544 417.624 185.733 418.206C175.363 420.32 164.993 422.26 154.429 422.919C148.362 423.269 142.295 423.269 136.228 422.919C127.873 422.415 119.5 421.969 111.339 419.991C108.567 419.312 105.524 418.885 103.818 416.073C103.547 412.077 103.508 408.082 103.818 404.086H103.799Z" fill="#EE1C24"/>
<path d="M131.033 429.203C123.279 428.757 115.603 427.884 108.238 425.208C106.319 424.509 104.186 423.811 103.702 421.387C103.392 419.874 103.566 418.71 105.698 419.564C123.24 426.643 141.48 425.052 159.623 423.598C168.927 422.861 178.173 421.348 187.438 420.204C188.408 420.087 189.842 419.641 189.493 421.425C189.202 422.88 190.966 425.266 187.884 425.673C177.495 427.031 167.105 428.427 156.716 429.707C155.029 429.921 153.265 430.987 151.56 429.707C146.694 429.106 141.81 429.63 136.944 429.436C134.987 429.358 133.01 429.669 131.052 429.242L131.033 429.203Z" fill="#EE1C24"/>
<path d="M191.528 477.712C191.141 477.983 190.734 478.235 190.365 478.507C187.768 480.388 185.074 480.039 183.504 477.595C181.972 475.248 182.767 471.738 185.132 470.341C187.458 468.984 189.939 469.876 191.47 472.63C191.742 473.134 191.974 473.639 192.226 474.162C191.994 475.345 191.78 476.529 191.548 477.712H191.528Z" fill="#FFF200"/>
<path d="M168.016 65.4598C171.156 65.421 174.025 67.477 174.083 69.785C174.161 72.6556 171.408 75.5067 168.559 75.5261C164.992 75.5455 162.783 73.3344 162.783 69.688C162.783 66.6429 164.217 65.4792 168.016 65.4404V65.4598Z" fill="#B4634C"/>
<path d="M172.106 75.7398C174.898 72.7723 176.72 70.0181 174.006 66.4688C176.972 66.973 179.608 69.2617 179.685 71.2012C179.763 73.1796 177.437 74.6536 172.106 75.7398Z" fill="#F9F9F9"/>
<path d="M161.368 68.0977C161.407 70.3669 162.24 72.0349 163.054 74.0327C161.096 73.9551 159.41 73.4702 158.848 71.7634C158.305 70.1148 159.429 68.9317 161.368 68.117V68.0977Z" fill="#EFEFEF"/>
<path d="M212.637 64.1995C216.378 64.2771 217.425 65.2275 217.367 68.5829C217.328 71.8996 215.157 74.0331 211.843 74.0137C208.916 73.9943 206.454 71.4147 206.609 68.5053C206.745 66.0421 209.4 64.1414 212.637 64.1995Z" fill="#B4634D"/>
<path d="M206.493 65.2852C204.225 69.0673 205.892 71.802 208.257 74.4786C205.601 73.7998 202.5 73.9743 201.434 70.8129C200.813 68.9703 203.023 66.5653 206.473 65.2852H206.493Z" fill="#F8F7F7"/>
<path d="M217.192 72.7921C217.813 70.387 218.724 68.6415 218.569 66.5273C220.352 66.9346 221.263 68.0596 221.205 69.4949C221.127 71.5896 219.111 71.8223 217.192 72.7921Z" fill="#F2F2F2"/>
<path d="M134.774 444.507C137.313 444.429 139.503 446.66 139.562 449.414C139.62 452.149 137.488 454.554 135.006 454.554C132.525 454.554 130.529 452.478 130.451 449.763C130.354 446.834 132.215 444.584 134.754 444.507H134.774Z" fill="#FFF200"/>
<path d="M158.499 480.873C158.499 483.782 156.522 485.955 153.944 485.877C151.405 485.799 149.311 483.433 149.389 480.718C149.466 478.158 151.618 475.849 153.944 475.83C156.541 475.83 158.499 477.983 158.499 480.873Z" fill="#FFF200"/>
<path d="M121.263 481.978C118.685 481.978 116.514 479.651 116.572 476.974C116.631 474.123 118.666 472.067 121.36 472.145C123.996 472.222 126.012 474.472 125.915 477.226C125.818 479.767 123.647 481.978 121.263 481.978Z" fill="#FFF200"/>
<path d="M179.976 448.599C180.034 451.489 178.135 453.623 175.479 453.623C172.765 453.623 170.827 451.586 170.808 448.735C170.808 446.02 172.668 443.925 175.188 443.828C177.863 443.712 179.898 445.767 179.957 448.599H179.976Z" fill="#FFF200"/>
<path d="M166.737 67.1665C168.404 65.9252 169.897 66.3907 171.195 67.7678C172.552 69.2224 171.835 70.8517 171.137 72.2287C170.323 73.858 168.579 73.7222 167.144 73.3537C165.09 72.8494 165.749 71.0262 165.691 69.6104C165.904 68.7376 166.117 67.8648 166.737 67.1665Z" fill="#252021"/>
<path d="M166.737 67.1675C167.338 68.3894 167.105 69.2622 165.69 69.6113C164.876 69.3592 163.888 69.1264 164.237 67.9821C164.644 66.6632 165.671 66.7408 166.737 67.1675Z" fill="#F5F0EE"/>
<path d="M214.576 68.2533C214.576 69.7079 215.138 71.4341 213.18 72.0548C211.901 72.4621 210.428 72.4621 209.594 71.2402C208.625 69.7855 208.237 68.0205 209.323 66.4883C210.35 65.0336 211.843 64.6069 213.529 65.5379C213.897 66.4495 214.207 67.3611 214.595 68.2727L214.576 68.2533Z" fill="#272122"/>
<path d="M214.576 68.2527C213.064 67.7872 212.812 66.8368 213.51 65.5179C214.401 65.4404 215.39 65.1494 215.739 66.3713C216.029 67.3799 215.273 67.8066 214.576 68.2527Z" fill="#FAF6F5"/>
</g>
<defs>
<clipPath id="clip0_1259_3969">
<rect width="349" height="677" fill="white"/>
</clipPath>
</defs>
</svg>
